<?xml version="1.0" standalone="no"?>
<!DOCTYPE svg PUBLIC "-//W3C//DTD SVG 20010904//EN"
 "http://www.w3.org/TR/2001/REC-SVG-20010904/DTD/svg10.dtd">
<svg version="1.0" xmlns="http://www.w3.org/2000/svg"
 width="1921.000000pt" height="902.000000pt" viewBox="0 0 1921.000000 902.000000"
 preserveAspectRatio="xMidYMid meet">

<g transform="translate(0.000000,902.000000) scale(0.100000,-0.100000)"
fill="#000000" stroke="none">
<path d="M9590 8120 c0 -5 9 -10 21 -10 11 0 17 5 14 10 -3 6 -13 10 -21 10
-8 0 -14 -4 -14 -10z"/>
<path d="M9466 7971 c-69 -71 -72 -118 -15 -250 23 -53 51 -127 63 -166 21
-66 24 -70 56 -76 19 -4 32 -8 28 -9 -12 -4 -27 -7 -38 -9 -5 0 -10 -5 -10
-11 0 -5 25 -10 55 -10 57 0 72 13 33 26 -22 7 -21 8 7 13 28 6 32 13 61 96
17 50 45 121 62 159 50 109 42 185 -26 241 -35 29 -40 30 -139 31 l-102 1 -35
-36z"/>
<path d="M9254 7793 c-45 -22 -75 -79 -68 -129 5 -35 4 -37 -9 -21 -13 15 -16
12 -36 -39 -11 -31 -21 -58 -21 -60 0 -4 26 6 103 40 48 22 56 28 45 40 -8 9
-15 10 -19 4 -9 -14 -21 6 -15 24 3 7 10 32 16 56 6 23 15 40 20 37 6 -3 7 1
4 9 -3 8 -1 24 6 35 6 12 9 21 8 20 -2 0 -17 -7 -34 -16z"/>
<path d="M9947 7753 c29 -63 42 -133 24 -133 -6 0 -11 6 -11 13 0 8 -3 7 -10
-3 -5 -9 -5 -19 0 -24 7 -7 138 -66 146 -66 2 0 -9 27 -24 61 -20 48 -28 57
-33 42 -5 -11 -8 -1 -8 29 -1 26 -7 53 -13 60 -7 8 -18 22 -23 32 -6 10 -24
24 -42 31 l-31 13 25 -55z"/>
<path d="M9864 7775 c3 -11 7 -30 11 -42 9 -32 -3 -29 -15 3 -9 22 -13 24 -26
13 -8 -7 -22 -26 -31 -42 -17 -35 -62 -184 -63 -209 0 -21 36 -24 75 -6 30 13
34 32 4 23 -20 -7 -20 -7 1 35 16 32 19 45 10 50 -9 6 -5 13 13 24 36 24 52
94 32 138 -8 18 -13 24 -11 13z"/>
<path d="M9337 7773 c-21 -20 3 -143 28 -143 19 0 30 -21 16 -29 -7 -5 -5 -18
9 -44 25 -46 25 -46 -2 -39 -20 5 -21 3 -10 -10 14 -17 76 -33 91 -23 23 13
-71 275 -98 275 -5 0 -13 -10 -20 -22 -11 -21 -11 -20 -6 10 5 33 3 37 -8 25z"/>
<path d="M9257 7690 c-3 -14 -2 -29 3 -34 15 -15 20 -3 11 29 l-7 30 -7 -25z"/>
<path d="M9940 7681 c0 -17 5 -31 10 -31 6 0 10 11 10 24 0 14 -4 28 -10 31
-6 4 -10 -7 -10 -24z"/>
<path d="M8330 7631 c-8 -5 -33 -14 -55 -21 -22 -7 -52 -21 -67 -32 -23 -16
-43 -19 -125 -17 -127 2 -191 -8 -203 -32 -18 -32 -11 -38 25 -23 20 8 79 16
133 19 53 2 81 2 62 -1 -152 -17 -200 -27 -220 -46 -12 -11 -18 -24 -13 -28 4
-4 58 1 118 12 152 27 300 20 450 -20 109 -29 165 -48 165 -55 0 -8 -56 0 -77
11 -12 7 -71 24 -130 39 -83 20 -133 26 -218 26 -112 0 -225 -17 -225 -34 0
-5 -19 -9 -42 -9 -37 0 -69 -7 -173 -37 -11 -3 4 10 32 31 29 20 57 36 62 36
5 0 13 5 17 11 5 8 -1 10 -19 5 -14 -3 -36 -2 -49 3 -20 8 -29 2 -76 -47 -33
-36 -56 -72 -63 -97 -36 -141 -37 -143 -65 -137 -25 4 -26 3 -19 -26 3 -17 2
-39 -3 -49 -7 -12 -5 -24 5 -40 14 -22 14 -30 -2 -91 -10 -37 -31 -105 -48
-152 -16 -47 -29 -102 -29 -122 1 -48 -51 -119 -179 -245 -52 -50 -120 -121
-152 -157 -34 -39 -69 -69 -85 -72 -37 -9 -122 -65 -122 -80 0 -6 -16 -26 -35
-43 -30 -26 -44 -31 -86 -31 -59 0 -91 15 -138 64 -21 21 -45 36 -58 36 -15 0
-42 19 -74 53 -44 44 -46 46 -16 9 19 -24 49 -78 67 -120 86 -203 79 -191 124
-204 51 -14 54 -17 36 -28 -20 -12 -8 -21 34 -24 46 -4 56 -13 25 -24 -22 -8
-19 -10 26 -20 103 -22 184 -31 325 -37 129 -5 202 -12 320 -31 l35 -6 -50 48
c-54 52 -47 74 10 27 19 -15 51 -41 70 -57 20 -16 39 -26 42 -22 3 3 2 6 -4 6
-6 0 -14 7 -17 16 -5 12 -2 15 10 10 18 -7 20 -10 -34 60 -29 39 -32 47 -30
107 3 57 0 69 -20 90 -13 14 -37 31 -52 37 -16 7 -27 17 -24 24 5 13 -28 33
-61 38 -17 3 -21 -5 -28 -47 -5 -27 -14 -70 -20 -94 l-12 -44 -110 1 c-78 0
-103 -2 -85 -9 20 -7 19 -8 -10 -3 -19 4 -46 7 -60 9 -42 3 -45 5 -30 15 9 5
71 7 152 3 l137 -6 5 34 c3 19 10 66 16 104 6 39 21 96 32 128 22 62 34 73 18
16 -16 -54 -12 -75 14 -87 30 -14 209 -173 202 -180 -3 -3 -12 1 -21 8 -12 10
-15 9 -15 -6 0 -36 42 -103 98 -155 31 -30 57 -58 57 -64 0 -5 5 -10 10 -10 6
-1 25 -9 43 -18 17 -10 32 -13 32 -8 0 11 -35 39 -105 84 -28 18 -51 41 -53
52 -3 19 -2 19 15 -1 10 -12 34 -29 53 -39 19 -9 52 -35 72 -58 21 -23 38 -36
38 -29 0 7 -22 35 -50 63 -27 28 -50 58 -50 67 0 13 6 10 28 -11 76 -77 112
-107 137 -113 18 -4 23 -9 14 -14 -7 -5 -23 -4 -37 1 -14 5 -26 8 -28 6 -10
-9 19 -29 67 -46 47 -17 50 -20 24 -21 l-30 -1 28 -15 c31 -17 57 -22 127 -24
25 -1 38 -4 30 -7 -8 -2 -21 -7 -29 -9 -27 -9 63 -48 128 -55 42 -4 72 -14 90
-28 14 -12 50 -33 79 -46 28 -14 52 -28 52 -31 0 -3 -7 -3 -16 0 -14 5 -15 4
-4 -9 9 -11 9 -15 1 -15 -8 0 -9 -5 -1 -19 16 -32 12 -31 -27 6 -49 46 -93 73
-118 73 -18 0 -18 -1 3 -16 12 -8 22 -24 22 -34 0 -10 5 -22 12 -26 17 -11
-18 -22 -72 -24 l-45 -1 85 -81 c47 -45 67 -68 45 -51 -22 17 -62 54 -90 82
-35 36 -60 53 -85 57 -19 3 -50 10 -68 16 -24 7 -37 7 -45 -1 -8 -8 -6 -11 8
-11 15 0 12 -5 -12 -20 -38 -23 -42 -47 -10 -60 12 -5 94 -39 182 -76 88 -37
189 -75 225 -85 149 -39 257 -72 280 -86 18 -10 20 -12 5 -9 -11 3 -63 15
-115 26 -112 24 -226 61 -332 106 -43 18 -78 31 -78 29 0 -2 -33 11 -72 30
-117 54 -118 54 -118 4 0 -70 -29 -105 -110 -129 -72 -22 -130 -61 -130 -88 0
-12 6 -10 28 9 15 13 7 2 -18 -24 -24 -26 -40 -47 -35 -47 6 0 6 -3 0 -8 -5
-4 -19 -24 -29 -45 -20 -39 -72 -84 -83 -73 -4 3 3 15 15 26 12 12 22 28 23
38 1 32 8 55 18 65 17 17 13 61 -9 117 -50 126 1 247 111 265 42 7 42 8 18 20
-13 7 -27 11 -32 8 -13 -8 -140 127 -196 209 -52 76 -65 85 -136 101 -11 3 -5
5 15 6 59 1 73 -8 125 -81 28 -39 69 -93 93 -119 50 -56 163 -133 210 -143 51
-12 98 10 133 60 16 24 26 44 22 45 -4 0 8 7 27 15 l35 14 -40 -5 c-144 -21
-173 -26 -201 -31 -20 -4 -34 -1 -42 8 -9 12 -7 14 16 11 15 -2 57 9 97 26 39
17 60 31 48 31 -12 0 -23 5 -25 11 -2 6 -23 12 -48 14 -30 2 -54 12 -78 31
-142 116 -280 159 -572 176 -96 5 -193 12 -216 13 -61 5 -198 50 -300 99 l-90
44 4 37 c9 75 -36 180 -112 263 -42 46 -112 102 -127 102 -10 0 60 -136 93
-182 11 -16 17 -28 14 -28 -3 0 -28 33 -55 73 -61 90 -79 106 -218 201 -124
85 -167 106 -215 106 -73 0 -111 -44 -254 -295 -38 -66 -79 -134 -90 -150 -33
-46 -65 -115 -59 -124 2 -5 -3 -15 -12 -22 -12 -10 -14 -10 -9 -1 4 6 2 12 -4
12 -6 0 -13 -7 -16 -14 -3 -8 -31 -35 -61 -60 -73 -60 -56 -58 36 4 72 49 125
71 66 27 -16 -12 -43 -35 -59 -52 -16 -16 -24 -22 -17 -12 8 9 11 17 8 17 -12
0 -178 -94 -197 -112 -10 -10 -22 -18 -25 -18 -3 0 -41 -14 -84 -31 l-78 -31
39 -91 c21 -51 50 -116 65 -145 14 -30 26 -60 26 -67 0 -8 4 -12 8 -9 4 2 13
-6 20 -18 7 -13 17 -26 23 -30 8 -5 8 -10 0 -18 -8 -8 -15 -3 -24 19 -15 36
-30 40 -30 9 0 -21 -2 -20 -19 8 -11 18 -28 38 -38 45 -10 8 -29 30 -43 49
l-24 35 27 -18 c15 -9 27 -16 27 -13 0 2 -15 29 -34 59 -18 31 -43 88 -56 127
-13 40 -28 69 -34 67 -6 -2 -10 -12 -10 -21 1 -9 -2 -16 -7 -16 -5 0 -9 -8 -9
-17 0 -9 -10 -28 -22 -42 -18 -20 -15 -19 10 4 l34 30 -17 -36 c-30 -63 -148
-104 -358 -125 -38 -3 -65 -10 -60 -14 4 -4 33 -15 63 -25 52 -16 86 -35 65
-35 -6 0 -50 14 -100 31 -83 28 -98 30 -185 25 -94 -5 -94 -5 -45 8 l50 14
-55 0 c-42 0 -69 -7 -115 -31 -33 -16 -62 -33 -65 -37 -3 -4 -18 -9 -35 -13
-44 -8 -129 -58 -115 -67 7 -4 -25 -13 -69 -19 -73 -11 -142 -9 -195 6 -12 3
-16 1 -12 -6 12 -18 -12 -13 -75 19 -62 30 -177 52 -202 38 -18 -10 -50 -16
-102 -19 -37 -2 -36 -3 15 -9 44 -5 48 -7 20 -9 -30 -2 -32 -4 -15 -12 24 -11
-28 -5 -118 14 -46 10 -85 10 -178 1 -118 -11 -121 -12 -157 -47 -50 -48 -161
-107 -201 -107 -18 0 -42 5 -54 11 -21 9 -20 9 2 -11 33 -29 68 -35 119 -21
63 16 62 8 0 -16 -37 -14 -53 -26 -52 -37 2 -19 -1 -16 -65 44 -37 35 -84 70
-93 70 -4 0 -8 -8 -8 -18 0 -25 36 -57 91 -80 51 -22 66 -41 98 -129 13 -34
29 -68 37 -74 19 -16 134 -250 134 -273 0 -11 11 -33 24 -50 12 -17 32 -51 43
-77 11 -25 33 -61 50 -80 54 -62 70 -93 97 -178 21 -67 25 -95 20 -140 -5 -52
-3 -60 30 -115 52 -87 76 -157 81 -244 13 -231 19 -279 32 -306 10 -20 14 -46
10 -80 -5 -57 17 -143 57 -220 14 -27 26 -55 26 -61 0 -7 23 -33 50 -58 48
-44 50 -49 50 -99 1 -53 16 -88 39 -88 7 0 9 -4 6 -10 -4 -6 6 -10 22 -11 52
-1 86 -10 139 -35 54 -25 114 -83 114 -109 0 -8 4 -15 9 -15 4 0 11 -25 15
-55 3 -31 13 -74 21 -98 8 -23 15 -52 15 -65 0 -12 16 -47 36 -76 43 -65 85
-208 93 -321 l6 -80 27 46 c16 25 61 75 101 111 40 36 114 121 166 189 51 68
102 127 113 132 17 6 19 5 9 -6 -6 -8 -31 -54 -55 -103 -24 -49 -55 -103 -68
-119 -14 -17 -31 -41 -38 -55 -7 -14 -15 -20 -17 -13 -3 7 1 21 7 32 19 37 1
22 -25 -19 -14 -22 -31 -40 -38 -40 -7 0 -27 -15 -44 -32 -24 -25 -37 -53 -52
-113 -10 -44 -20 -69 -20 -55 -1 14 3 40 9 59 5 19 6 40 1 49 -7 12 -14 5 -35
-30 -14 -25 -26 -50 -26 -56 0 -6 -9 -29 -20 -50 -11 -21 -23 -60 -26 -87 -4
-28 -15 -59 -24 -70 -10 -11 -30 -42 -44 -70 -26 -49 -27 -49 -22 -15 l5 35
-50 -55 c-27 -30 -63 -73 -79 -95 l-28 -41 36 3 c36 3 36 2 8 -7 -29 -9 -66
-37 -66 -50 0 -4 9 -18 19 -31 l19 -24 71 73 c59 60 74 71 89 63 24 -13 79 0
122 30 20 13 60 35 90 48 30 13 87 38 125 56 39 18 88 39 110 45 22 7 54 24
71 37 17 12 34 23 39 23 4 0 20 11 36 24 71 60 341 179 519 230 83 23 247 57
320 66 36 5 88 18 115 30 28 12 91 33 140 46 50 13 135 39 191 58 55 19 166
50 245 70 79 19 156 39 171 45 14 5 62 15 107 21 44 6 97 18 118 26 20 9 70
17 109 17 40 1 68 5 63 8 -6 3 36 11 93 18 250 30 501 86 591 133 36 18 39 22
22 28 -19 7 -19 7 4 15 21 6 23 11 17 47 -5 30 -3 39 6 36 8 -3 12 -16 10 -31
-2 -15 1 -27 7 -27 6 0 12 6 12 13 1 6 3 22 4 35 1 12 6 26 10 30 4 4 5 -10 2
-30 -7 -47 3 -54 39 -26 21 16 25 17 15 5 -8 -10 -28 -25 -45 -34 -17 -8 -40
-26 -51 -39 -11 -14 -47 -36 -80 -50 -33 -14 -46 -23 -30 -19 43 9 149 59 192
92 21 15 71 56 110 90 40 35 81 63 91 63 25 0 42 19 42 47 0 12 5 33 11 46 13
29 54 37 185 37 82 0 84 -1 118 -35 25 -24 44 -35 65 -35 22 0 41 -11 70 -40
22 -22 44 -40 50 -40 5 0 13 -10 17 -22 4 -13 19 -41 34 -63 15 -22 41 -69 58
-105 37 -77 87 -140 111 -140 10 0 28 -11 41 -25 13 -14 30 -25 39 -25 8 0 25
-9 37 -21 18 -17 26 -19 43 -9 27 14 36 8 68 -43 32 -53 128 -145 159 -153 13
-3 21 -10 18 -16 -3 -5 3 -4 15 3 11 7 32 36 47 64 15 27 44 68 65 90 40 43
89 128 89 154 -1 9 -9 0 -20 -19 -28 -52 -24 -27 5 30 14 28 29 67 34 87 l9
38 1 -35 c1 -54 -25 -211 -42 -255 -9 -22 -16 -34 -16 -26 -1 8 -12 0 -26 -19
-32 -44 -32 -50 2 -19 14 13 23 18 19 11 -5 -8 -28 -32 -53 -55 -76 -70 -91
-123 -53 -197 23 -46 29 -50 23 -17 -3 14 2 29 11 36 9 8 16 23 16 35 1 33 18
57 131 175 111 117 125 125 177 97 15 -8 40 -19 55 -25 19 -8 36 -28 53 -64
l25 -52 -6 45 c-7 54 -73 248 -92 271 -7 8 -13 22 -13 30 0 8 -22 49 -50 92
-36 56 -44 75 -29 66 11 -6 18 -13 15 -16 -3 -3 10 -26 29 -51 19 -25 35 -50
35 -57 0 -30 28 -38 76 -21 62 21 69 13 9 -9 -25 -10 -48 -21 -50 -25 -2 -4
11 -49 30 -101 22 -60 35 -85 36 -69 1 14 7 -9 14 -50 14 -88 54 -281 60 -295
3 -5 3 40 1 100 l-4 110 12 -95 12 -95 6 75 c4 41 18 109 32 152 22 67 25 90
22 192 -2 64 1 119 5 122 10 6 12 65 3 88 -11 30 -24 16 -24 -26 0 -26 -4 -38
-8 -30 -8 11 -19 -42 -51 -233 -6 -36 -7 -38 -14 -15 -4 15 5 74 22 150 30
128 38 215 21 225 -6 4 -10 11 -10 16 0 21 46 -23 66 -63 l22 -42 19 41 c21
47 93 105 93 76 0 -9 -3 -13 -7 -10 -11 12 -43 -25 -43 -50 0 -13 4 -22 9 -19
5 4 6 -5 2 -21 -4 -15 -1 -49 6 -77 31 -117 43 -192 36 -221 -7 -28 -8 -27
-14 20 -6 47 -24 152 -35 203 -2 13 -9 20 -14 17 -6 -4 -10 12 -10 37 -1 40
-2 42 -15 24 -20 -26 -19 -71 1 -90 8 -9 12 -21 9 -27 -4 -6 -7 -59 -7 -117 0
-84 4 -121 22 -172 12 -36 24 -93 27 -128 7 -76 16 -72 25 11 6 59 6 57 4 -20
0 -46 1 -83 4 -83 5 0 33 130 55 255 7 39 13 64 14 56 1 -8 4 -12 7 -8 5 4 51
131 66 180 2 5 -21 18 -50 29 -64 25 -61 36 4 14 26 -9 49 -16 50 -16 2 0 28
39 59 86 31 47 59 83 62 81 2 -3 -11 -27 -30 -54 -19 -26 -47 -73 -62 -103
-36 -73 -101 -264 -110 -320 l-6 -45 22 43 c20 39 61 72 90 72 6 0 27 14 46
30 57 51 81 42 231 -85 26 -22 41 -32 33 -22 -10 12 -10 17 -2 17 8 0 3 12 -9
31 -12 16 -25 28 -28 24 -12 -12 -33 64 -47 169 -18 136 -18 168 1 98 8 -29
23 -67 34 -85 11 -17 20 -36 20 -42 -1 -5 -8 3 -16 18 -9 16 -18 26 -21 23
-10 -10 47 -113 90 -161 23 -27 53 -69 67 -94 20 -37 31 -47 56 -49 26 -3 42
7 102 63 80 74 93 73 33 -2 -39 -50 -75 -112 -69 -119 2 -2 15 15 28 36 14 22
28 40 32 40 5 0 22 14 40 30 17 17 34 30 38 30 4 0 13 19 20 41 15 44 75 109
101 109 8 0 26 11 39 25 13 14 31 25 41 25 9 0 53 42 97 93 44 50 99 110 122
132 23 22 47 54 54 70 31 73 80 110 211 160 76 28 140 31 200 10 22 -8 51 -15
65 -15 14 0 31 -9 38 -20 7 -11 22 -20 33 -20 16 0 20 -5 16 -17 -12 -45 -12
-48 13 -51 22 -4 142 -117 133 -126 -2 -2 13 -16 33 -31 31 -23 34 -24 25 -7
-6 11 -20 24 -32 27 -16 5 -18 9 -8 21 8 10 9 21 2 37 -8 16 -7 26 3 35 12 11
14 6 14 -27 0 -42 14 -62 24 -34 4 9 1 20 -6 25 -7 4 -11 8 -8 9 3 0 13 2 23
4 14 3 17 -1 11 -13 -19 -46 -16 -60 13 -70 27 -10 27 -10 4 -11 -24 -1 -24
-1 -5 -16 35 -27 229 -83 380 -109 82 -14 232 -37 333 -51 102 -14 212 -32
245 -39 34 -8 97 -22 141 -31 84 -18 439 -121 465 -135 9 -5 60 -20 115 -35
55 -14 128 -37 161 -51 34 -13 90 -28 125 -33 246 -32 581 -141 771 -250 32
-18 61 -37 64 -42 3 -5 37 -9 75 -9 48 0 81 -6 107 -19 121 -61 156 -80 237
-129 92 -56 191 -105 212 -107 13 0 52 -49 109 -134 27 -40 38 -50 45 -40 5 8
9 22 9 32 0 10 7 20 15 23 12 5 12 10 -6 33 -11 14 -35 34 -52 44 -32 18 -32
18 -5 14 26 -4 27 -3 13 23 -7 14 -43 57 -78 96 -60 64 -65 67 -61 39 4 -23
-3 -15 -28 33 -19 35 -37 60 -41 56 -7 -7 -8 -3 -12 46 -5 51 -82 231 -106
246 -9 5 -10 -10 -6 -57 l6 -64 -18 66 c-22 81 -40 108 -89 135 -20 11 -42 31
-48 43 -7 13 -17 28 -24 34 -7 7 -5 -3 5 -21 9 -19 15 -36 13 -38 -8 -7 -78
102 -131 204 -43 81 -50 102 -37 102 9 0 21 -10 27 -22 21 -46 211 -274 255
-308 53 -40 120 -136 150 -216 30 -79 32 -61 3 31 -43 133 -32 230 34 313 16
21 36 53 45 72 10 19 26 51 37 70 11 21 19 54 19 83 0 26 6 62 14 80 8 18 66
86 128 151 101 105 118 118 141 114 29 -6 34 1 15 21 -11 11 -9 12 10 6 18 -5
22 -2 22 14 0 11 11 32 24 48 22 26 53 87 113 223 13 30 33 72 44 93 16 31 20
54 18 125 -2 62 2 101 15 137 11 31 21 108 28 205 10 161 16 183 83 325 13 28
26 73 28 100 9 100 54 209 172 415 29 52 54 103 54 112 1 19 125 264 147 289
8 9 21 38 31 65 23 70 47 99 101 125 51 24 112 76 112 95 0 6 -11 14 -25 16
-17 4 -25 1 -25 -8 0 -8 -23 -30 -50 -50 -28 -20 -47 -40 -44 -45 3 -5 0 -9
-7 -9 -7 0 -22 -8 -33 -18 -19 -16 -20 -16 -7 0 11 15 11 19 -5 24 -52 19
-106 44 -84 39 84 -18 109 -17 145 5 20 12 34 24 31 27 -3 3 -15 -2 -28 -11
-12 -9 -30 -16 -40 -16 -27 0 -179 88 -208 120 -20 22 -39 31 -93 40 -93 17
-198 15 -280 -4 -76 -18 -116 -21 -82 -6 17 7 14 9 -15 11 -26 2 -20 4 25 9
l60 8 -67 -2 c-36 0 -64 1 -62 3 3 3 -5 10 -16 16 -31 17 -140 -1 -202 -32
-40 -20 -70 -26 -132 -29 -86 -3 -235 14 -217 26 11 6 -104 70 -127 70 -14 0
-84 41 -79 47 3 2 24 -3 48 -11 67 -23 57 -12 -18 19 -54 24 -79 29 -132 27
-36 -2 -67 -5 -69 -7 -2 -2 16 -8 40 -14 36 -8 29 -9 -47 -5 -79 5 -100 2
-174 -21 -47 -15 -91 -29 -98 -32 -7 -3 -13 -1 -13 5 0 5 29 18 65 28 36 10
65 21 65 25 0 3 -46 11 -102 18 -193 23 -278 54 -313 113 l-19 33 37 -32 c39
-34 107 -73 128 -73 7 0 -6 13 -28 29 -45 33 -83 77 -83 97 0 9 -12 14 -32 15
-24 0 -28 2 -15 8 17 6 17 8 -1 25 -24 21 -24 20 -51 -69 -11 -38 -36 -96 -56
-127 -35 -59 -36 -71 -3 -41 10 9 20 14 23 12 2 -3 -20 -31 -50 -63 -30 -31
-57 -67 -61 -79 -7 -19 -9 -16 -15 17 -5 32 -1 50 22 95 16 31 45 94 64 141
20 47 39 91 42 97 3 7 -3 16 -13 19 -11 3 -32 12 -49 19 -16 6 -46 18 -65 26
-19 7 -53 25 -75 39 -22 15 -71 44 -109 65 -56 31 -68 34 -62 19 3 -11 -5 -4
-20 14 -14 18 -39 39 -56 48 -16 8 -28 17 -25 20 7 7 73 -24 87 -41 14 -17 88
-57 128 -69 23 -8 23 -8 5 21 -22 36 -75 83 -123 109 -72 39 -79 48 -275 381
-42 72 -93 146 -112 165 -31 30 -40 33 -91 33 -55 0 -62 -3 -188 -86 -145 -96
-184 -131 -244 -219 -22 -33 -43 -60 -45 -60 -2 0 13 28 33 63 43 71 74 137
66 137 -16 0 -97 -68 -137 -114 -70 -81 -109 -176 -104 -256 2 -34 0 -36 -73
-72 -77 -39 -144 -63 -135 -48 3 4 -5 10 -17 13 -30 8 -20 16 32 22 54 7 59
11 35 29 -17 12 -15 14 23 21 48 8 63 25 93 107 17 47 17 50 1 28 -38 -55 -49
-60 -119 -60 -87 0 -130 13 -172 51 -31 29 -33 33 -26 76 4 25 9 51 11 57 2 6
-4 12 -15 13 -30 2 -109 62 -170 128 -31 33 -97 101 -147 150 -75 73 -101 107
-142 185 -28 52 -56 122 -63 155 -14 68 -18 361 -6 387 7 14 2 17 -35 20 -41
3 -44 5 -70 56 -23 45 -27 50 -31 30 -3 -18 -5 -16 -6 9 0 19 -15 49 -36 77
-19 25 -32 46 -30 46 3 0 -21 24 -54 53 -55 49 -65 54 -138 67 -43 8 -123 13
-179 11 -92 -2 -106 0 -150 23 -27 14 -69 32 -94 39 -51 15 -96 6 -230 -45
-95 -36 -171 -49 -372 -63 -89 -7 -100 -6 -132 15 -20 12 -36 17 -36 12 0 -16
22 -28 80 -47 30 -9 69 -23 85 -30 53 -23 109 -35 170 -36 33 0 52 -3 43 -7
-16 -6 -16 -10 -3 -35 13 -25 12 -27 -4 -27 -10 0 -24 7 -31 15 -14 17 -52 17
-49 0 2 -19 -52 -32 -95 -23 -22 5 -67 12 -99 17 l-59 8 7 -36 c4 -20 12 -39
17 -42 6 -4 2 -10 -10 -13 -12 -4 -19 -13 -16 -21 3 -7 1 -16 -5 -19 -9 -6
-17 29 -23 109 l-3 30 -190 6 c-104 3 -198 3 -207 1 -27 -7 -48 -97 -48 -209
0 -115 14 -180 35 -163 10 8 18 7 34 -7 30 -25 26 -33 -13 -33 -31 0 -36 -4
-51 -45 -13 -33 -16 -62 -12 -117 5 -68 4 -71 -8 -43 -8 17 -14 37 -15 46 0
18 -41 59 -57 59 -19 0 -50 -47 -57 -85 -10 -52 -28 -55 -19 -3 18 111 -5 188
-56 188 -40 0 -44 10 -15 33 21 16 28 17 34 6 17 -26 29 36 31 157 1 112 -2
132 -33 212 -5 12 -402 2 -410 -11 -4 -7 -8 -34 -8 -62 0 -27 -5 -57 -10 -65
-8 -12 -10 -11 -10 6 0 12 -7 24 -15 28 -12 4 -13 11 -5 31 20 53 14 64 -32
58 -24 -3 -67 -11 -96 -18 -60 -15 -79 -12 -104 19 -17 20 -18 21 -48 4 -48
-27 -62 -24 -45 9 13 25 13 28 -3 34 -9 4 19 8 63 10 61 3 101 12 169 39 l90
35 -65 6 c-35 4 -104 10 -154 13 -113 9 -189 26 -331 76 -120 43 -121 43 -144
31z m-55 -111 c33 -6 96 -22 140 -35 44 -13 112 -28 150 -34 120 -19 122 -20
35 -16 -49 3 -144 19 -225 39 -77 18 -157 37 -178 40 -21 4 -35 11 -32 17 4 5
16 7 28 4 12 -2 49 -9 82 -15z m2775 10 c0 -5 -17 -12 -37 -16 -21 -3 -101
-22 -178 -41 -89 -22 -171 -36 -225 -38 -47 -2 -71 -2 -55 1 122 18 171 28
249 51 71 20 189 46 239 52 4 1 7 -3 7 -9z m265 -24 c19 -8 40 -24 47 -35 7
-12 16 -21 20 -21 11 0 109 -63 104 -67 -2 -2 -31 5 -64 16 -33 10 -80 21
-104 22 -23 2 -54 9 -68 16 -14 6 -66 17 -116 23 -127 15 -304 -8 -429 -56
-22 -9 -53 -17 -70 -19 -27 -3 -26 -2 12 15 46 21 135 46 233 66 91 19 237 16
355 -5 101 -19 129 -15 105 14 -16 20 -69 33 -177 45 l-88 9 103 -5 c57 -2
118 -11 137 -18z m-20 -165 c-21 -43 -29 -39 -8 4 9 19 18 33 21 31 2 -2 -4
-18 -13 -35z m-3367 -6 c-3 -3 -9 2 -12 12 -6 14 -5 15 5 6 7 -7 10 -15 7 -18z
m95 -105 c5 0 5 5 2 10 -10 16 3 12 22 -8 10 -10 40 -35 66 -56 31 -24 50 -48
54 -67 3 -16 10 -26 16 -22 6 4 8 -4 5 -21 -7 -34 -2 -33 18 6 9 18 17 55 18
83 1 43 3 49 13 36 7 -9 13 -25 13 -35 0 -11 21 -39 48 -64 43 -41 42 -50 -2
-13 -18 15 -19 15 -12 -4 14 -39 27 -121 24 -160 l-3 -40 76 -32 c41 -18 119
-44 174 -59 91 -24 111 -26 215 -21 64 4 131 9 150 12 33 5 34 5 10 -6 -14 -7
-47 -15 -75 -19 -48 -7 -46 -7 30 -10 56 -2 70 -5 47 -9 -49 -9 -44 -24 13
-39 47 -12 246 -11 400 3 41 4 45 3 21 -5 -16 -5 -82 -15 -145 -21 -228 -24
-246 -26 -232 -27 8 -1 12 -4 9 -7 -9 -10 -38 7 -31 18 3 5 1 7 -4 4 -6 -4
-70 9 -143 28 -124 32 -139 34 -266 30 -112 -3 -135 -1 -142 12 -13 21 -3 66
12 54 14 -12 94 -27 84 -16 -5 5 -45 23 -90 40 -46 18 -91 35 -100 40 -14 6
-22 -2 -39 -41 -12 -27 -25 -65 -29 -84 l-8 -35 -1 33 c0 17 -5 32 -11 32 -5
0 0 16 12 36 17 29 19 39 9 60 -6 14 -11 41 -11 61 0 30 2 34 15 23 13 -11 15
-4 10 56 -5 71 -11 114 -18 121 -3 2 -15 -15 -27 -39 -12 -24 -44 -72 -70
-108 -28 -39 -57 -94 -70 -135 -13 -38 -54 -140 -91 -225 -89 -204 -103 -261
-95 -415 3 -70 2 -112 -3 -100 -7 17 -10 13 -20 -25 -7 -25 -13 -49 -15 -55
-7 -24 5 259 15 340 21 180 45 255 132 417 90 170 147 298 147 333 0 31 -34
68 -90 97 -60 31 -83 48 -103 78 -31 44 -17 46 21 2 20 -23 41 -42 45 -42z
m3232 44 c-25 -38 -47 -57 -101 -84 -57 -29 -94 -65 -94 -91 0 -33 67 -181
149 -333 110 -202 138 -323 145 -617 2 -121 1 -137 -8 -98 -6 25 -16 44 -21
42 -8 -2 -10 37 -7 120 5 150 -2 179 -97 397 -38 85 -78 186 -91 223 -12 37
-38 89 -58 115 -56 74 -92 134 -92 156 -1 33 -17 -1 -23 -49 -3 -22 -9 -48
-12 -58 -9 -21 2 -70 14 -63 15 10 19 -29 8 -82 -10 -47 -9 -54 11 -75 25 -26
30 -46 7 -27 -13 11 -15 8 -16 -21 l-1 -34 -8 38 c-4 21 -12 43 -19 50 -6 6
-11 18 -11 26 -1 39 -15 44 -66 21 -27 -12 -70 -28 -96 -36 -60 -18 -75 -38
-21 -28 21 3 44 11 51 17 9 7 12 3 12 -16 0 -55 0 -55 -150 -52 -131 3 -147 1
-262 -29 -68 -18 -132 -37 -142 -41 -11 -5 -17 -5 -14 1 4 5 -25 9 -65 10 -90
0 -292 21 -332 34 -22 7 -12 8 40 4 149 -12 369 -9 408 4 43 16 42 21 -5 32
-27 6 -19 8 42 10 72 3 73 3 25 9 -27 4 -59 12 -70 19 -18 12 -16 13 15 7 19
-3 85 -8 145 -12 98 -5 121 -3 210 21 55 14 135 41 178 58 l77 32 0 65 c0 37
4 82 10 100 12 43 6 50 -20 26 -11 -10 -22 -16 -25 -14 -2 3 15 22 39 42 27
22 47 48 51 67 10 45 20 43 21 -4 1 -23 11 -59 23 -81 19 -36 20 -37 15 -10
-4 17 -3 27 1 23 5 -5 16 9 25 30 10 22 35 49 61 67 24 17 52 39 62 50 10 11
16 14 12 8 -12 -25 12 -12 44 22 37 41 50 46 26 9z m-3165 -29 c0 -8 -2 -15
-4 -15 -2 0 -6 7 -10 15 -3 8 -1 15 4 15 6 0 10 -7 10 -15z m3050 5 c0 -5 -5
-10 -11 -10 -5 0 -7 5 -4 10 3 6 8 10 11 10 2 0 4 -4 4 -10z m491 -58 c-14 -4
-31 15 -31 35 0 7 10 2 23 -10 16 -16 18 -23 8 -25z m-3943 -332 c-24 -27 -74
-103 -111 -167 -36 -65 -91 -156 -121 -203 -30 -47 -74 -116 -97 -153 -23 -37
-44 -65 -47 -63 -6 7 38 82 103 176 64 92 119 189 112 196 -3 3 -15 -11 -26
-33 -25 -48 -85 -134 -78 -111 8 22 120 200 160 253 30 39 138 155 145 155 2
0 -16 -22 -40 -50z m3996 -185 c82 -123 104 -161 87 -151 -6 4 -28 37 -50 74
-22 37 -47 76 -56 87 -32 39 58 -122 130 -230 64 -96 118 -190 102 -175 -24
22 -210 321 -302 484 -15 27 -43 67 -63 90 -27 31 -22 28 22 -14 32 -30 91
-104 130 -165z m-1454 -39 c0 -2 -7 -7 -16 -10 -8 -3 -12 -2 -9 4 6 10 25 14
25 6z m-1019 -103 c10 -12 5 -11 -18 6 -18 12 -33 24 -33 27 0 9 37 -15 51
-33z m839 29 c0 -4 -15 -16 -32 -26 l-33 -17 30 25 c33 29 35 30 35 18z m540
-226 c0 -2 -8 -10 -17 -17 -16 -13 -17 -12 -4 4 13 16 21 21 21 13z m1278
-131 c12 -33 26 -97 32 -143 5 -46 13 -88 16 -94 5 -8 48 -9 138 -5 78 4 137
3 146 -3 16 -10 14 -11 -27 -15 -16 -1 -41 -5 -58 -8 -23 -6 -26 -5 -10 2 14
7 -12 10 -90 9 l-110 -1 -12 64 c-18 93 -34 144 -41 133 -4 -5 -20 -16 -36
-24 -16 -8 -29 -19 -29 -25 -1 -5 -20 -22 -43 -37 -23 -14 -45 -35 -48 -45 -8
-28 -11 -108 -4 -119 4 -5 -11 -32 -32 -58 -21 -28 -37 -59 -36 -72 l1 -23 25
23 c14 13 40 31 58 40 18 10 36 24 39 32 3 7 15 14 27 14 17 0 11 -9 -33 -50
-30 -28 -50 -50 -45 -50 5 0 52 7 104 15 52 8 162 17 245 20 82 4 190 13 239
21 49 8 90 13 92 11 7 -6 -110 -39 -151 -42 -22 -2 -121 -8 -220 -14 -207 -12
-359 -43 -438 -92 -27 -16 -52 -29 -56 -29 -4 0 -34 -24 -66 -52 -32 -29 -56
-46 -53 -37 6 14 2 15 -33 7 -21 -6 -39 -14 -39 -19 0 -4 -10 -9 -22 -11 -17
-2 -3 -11 49 -32 39 -16 81 -26 92 -23 12 3 21 1 21 -4 0 -13 -47 -22 -67 -14
-10 4 -47 11 -83 15 -36 5 -83 11 -105 14 l-40 6 40 -14 c22 -8 34 -15 28 -15
-7 -1 1 -20 19 -46 36 -51 81 -70 139 -58 74 15 194 118 290 249 32 45 66 85
75 88 8 3 34 6 57 5 l42 -1 -44 -9 c-53 -10 -71 -26 -124 -104 -50 -74 -177
-207 -192 -201 -6 2 -22 -2 -34 -9 -23 -12 -23 -12 15 -19 66 -13 94 -34 120
-89 30 -65 30 -73 -2 -179 l-27 -86 22 -31 c12 -17 18 -31 12 -31 -14 0 6 -47
33 -77 15 -18 16 -23 5 -23 -20 0 -72 56 -94 100 -10 19 -30 51 -44 69 -14 19
-20 32 -13 27 6 -4 12 -3 12 3 0 21 -64 61 -128 81 -60 17 -71 24 -90 59 -12
21 -22 55 -22 76 0 42 -2 42 -110 -7 -36 -16 -72 -31 -80 -33 -8 -2 -51 -19
-95 -38 -94 -40 -180 -66 -329 -102 -199 -47 -126 -13 116 54 82 23 205 66
275 97 71 31 150 64 176 73 27 9 48 20 48 24 -1 4 -1 14 -1 22 0 9 -15 22 -32
30 -23 10 -27 14 -14 15 14 0 17 3 10 10 -7 7 -32 5 -75 -6 -56 -14 -75 -25
-130 -76 -102 -94 -133 -111 -39 -21 l85 82 -45 1 c-25 1 -53 5 -63 9 -17 6
-17 8 -3 20 9 7 13 18 9 24 -3 5 5 18 18 28 21 16 21 19 6 19 -27 0 -57 -19
-106 -67 -24 -23 -46 -41 -49 -38 -3 2 0 10 5 17 15 20 12 48 -6 48 -9 0 10
15 41 33 31 18 68 40 82 51 16 11 53 21 90 25 35 4 74 14 87 23 14 9 34 18 44
20 16 4 12 7 -15 15 l-35 11 50 2 c28 1 53 2 57 1 4 0 27 7 50 16 40 16 41 18
18 23 -23 6 -21 8 20 20 47 14 78 35 68 46 -4 3 -16 1 -27 -6 -15 -7 -27 -8
-39 -1 -16 10 -15 10 3 11 28 0 85 37 85 55 0 8 10 19 23 26 12 6 32 23 44 37
32 38 38 22 8 -21 l-24 -37 50 25 c27 14 52 32 56 40 3 8 9 15 15 15 5 0 6 -4
3 -10 -10 -17 11 -11 27 8 18 20 42 66 53 100 6 22 5 23 -15 12 -32 -17 -34
-7 -3 21 51 45 171 144 194 159 21 16 21 17 6 69 -20 69 -6 53 21 -24z m-3121
-37 c72 -112 75 -118 70 -118 -3 0 -29 37 -58 83 -29 45 -59 92 -67 105 -8 12
-12 22 -9 22 3 0 32 -42 64 -92z m1767 60 c-29 -50 -107 -168 -111 -168 -5 0
-2 5 60 103 27 42 51 77 54 77 2 0 1 -6 -3 -12z m-3209 -38 c3 -5 -3 -10 -14
-10 -11 0 -23 5 -26 10 -3 6 3 10 14 10 11 0 23 -4 26 -10z m4640 0 c-3 -5
-13 -10 -21 -10 -8 0 -14 5 -14 10 0 6 9 10 21 10 11 0 17 -4 14 -10z m-6003
-52 c-16 -24 -39 -62 -51 -85 -22 -43 -36 -58 -24 -25 4 10 -9 3 -33 -18 l-38
-35 27 35 c15 19 46 60 69 90 36 48 66 79 76 80 2 0 -10 -19 -26 -42z m7370
-27 c12 -20 45 -60 73 -90 27 -30 40 -49 28 -43 -12 7 -33 27 -48 44 -25 31
-26 31 -20 8 3 -14 -8 -1 -24 29 -17 30 -43 70 -57 89 l-27 34 26 -17 c15 -9
37 -33 49 -54z m-6941 -48 c13 -16 12 -17 -3 -4 -10 7 -18 15 -18 17 0 8 8 3
21 -13z m4019 -33 c-6 -11 -13 -20 -16 -20 -2 0 0 9 6 20 6 11 13 20 16 20 2
0 0 -9 -6 -20z m-44 -42 c-2 -13 -40 -97 -84 -188 -45 -91 -82 -169 -82 -175
1 -5 8 2 16 18 8 15 17 27 19 27 3 0 -22 -51 -54 -112 -73 -138 -230 -534
-231 -580 0 -5 15 -8 33 -8 19 0 80 -7 137 -15 56 -9 148 -17 204 -18 99 -2
103 -1 152 31 62 39 77 41 38 5 l-29 -28 93 -3 c137 -4 220 10 305 52 40 20
63 29 53 21 -11 -8 -25 -15 -30 -16 -6 0 -1 -4 10 -9 15 -6 52 -1 115 16 52
13 105 23 119 23 28 0 -48 -24 -225 -70 -66 -17 -172 -46 -235 -66 -155 -47
-251 -52 -430 -25 -74 12 -178 24 -231 28 l-96 7 -22 -71 c-11 -38 -21 -75
-21 -81 0 -9 20 -15 95 -25 17 -2 1 -4 -34 -3 -49 0 -65 -3 -73 -16 -14 -26
-38 -109 -38 -135 0 -12 -7 -34 -16 -47 -13 -20 -15 -39 -9 -98 7 -76 -1 -131
-16 -121 -5 3 -9 0 -9 -6 0 -7 -6 -10 -14 -7 -10 4 -18 -5 -25 -25 -15 -42
-14 -69 4 -111 8 -20 15 -53 14 -74 l-1 -38 -14 33 c-17 39 -31 35 -32 -8 0
-17 3 -28 8 -25 12 8 -22 -88 -35 -97 -6 -4 -10 -75 -10 -177 0 -100 -3 -161
-8 -148 -5 12 -9 65 -9 117 0 64 -3 84 -8 60 -5 -24 -7 -8 -7 53 0 94 -11 120
-38 97 -21 -18 -19 -30 8 -31 21 -2 21 -2 1 -6 -19 -4 -21 -13 -27 -121 -4
-64 -11 -130 -17 -147 -8 -25 -9 -20 -5 25 3 30 7 89 9 130 4 62 3 66 -3 25
-7 -47 -8 -45 -9 33 -1 47 -6 82 -12 82 -5 0 -10 6 -10 13 -1 6 -9 30 -20 52
-10 22 -14 42 -9 43 14 6 11 64 -3 60 -7 -3 -15 -13 -16 -24 -2 -10 -8 -23
-13 -28 -16 -17 -10 51 9 101 19 49 17 88 -6 128 -11 20 -11 20 -12 0 -1 -18
-2 -18 -10 3 -5 12 -13 22 -18 22 -17 0 -22 58 -10 114 9 48 8 60 -9 93 -11
21 -23 59 -26 84 -4 26 -13 64 -22 86 l-16 39 -62 -2 c-34 -1 -46 0 -27 2 90
10 91 12 61 109 l-19 60 -84 -1 c-45 -1 -152 -12 -237 -24 -192 -28 -285 -24
-421 19 -80 25 -292 83 -457 124 -40 10 -64 30 -25 21 30 -7 186 -45 207 -51
l20 -5 -20 15 c-20 16 -19 16 4 10 17 -4 22 -3 17 5 -4 6 27 -5 68 -24 73 -35
80 -36 222 -42 157 -5 155 -6 115 42 -15 18 -15 18 9 6 14 -7 38 -23 53 -34
25 -19 41 -21 136 -19 58 1 138 7 176 13 39 6 98 14 133 17 35 3 62 10 62 17
-1 42 -131 381 -200 519 -28 54 -47 104 -43 109 3 6 2 8 -4 5 -6 -4 -15 5 -22
19 -6 15 -7 23 -1 19 18 -11 10 9 -64 158 -41 81 -70 149 -66 152 4 3 78 -136
165 -308 171 -340 177 -349 244 -421 36 -39 40 -45 16 -28 -17 11 -52 43 -78
71 -26 27 -47 46 -47 42 0 -5 14 -41 31 -82 36 -85 79 -216 79 -241 0 -9 5
-20 10 -23 6 -3 78 -17 161 -30 l151 -23 121 19 c67 11 137 22 155 25 21 3 32
10 32 22 0 18 56 196 71 223 4 9 17 40 29 70 l20 54 -30 -36 c-16 -20 -51 -54
-78 -75 l-47 -39 53 60 c43 48 87 128 230 412 97 194 178 353 179 353 1 0 0
-10 -1 -22z m-3900 -63 c18 -28 36 -108 23 -99 -5 3 -9 14 -9 25 0 11 -9 38
-19 59 -22 45 -19 52 5 15z m1194 15 c0 -5 -5 -10 -11 -10 -5 0 -7 5 -4 10 3
6 8 10 11 10 2 0 4 -4 4 -10z m3955 0 c3 -5 1 -10 -4 -10 -6 0 -11 5 -11 10 0
6 2 10 4 10 3 0 8 -4 11 -10z m1171 -54 c-12 -35 -22 -57 -24 -50 -6 23 28
114 42 114 1 0 -7 -29 -18 -64z m894 14 c6 -11 9 -20 7 -20 -2 0 -12 9 -22 20
-10 11 -13 20 -7 20 6 0 16 -9 22 -20z m-2130 -10 c0 -5 -5 -10 -11 -10 -5 0
-7 5 -4 10 3 6 8 10 11 10 2 0 4 -4 4 -10z m-1260 -130 c-6 -11 -13 -20 -16
-20 -2 0 0 9 6 20 6 11 13 20 16 20 2 0 0 -9 -6 -20z m-1295 -40 c9 -16 13
-30 11 -30 -3 0 -12 14 -21 30 -9 17 -13 30 -11 30 3 0 12 -13 21 -30z m4610
-10 c21 -22 37 -40 34 -40 -3 0 -23 18 -44 40 -21 22 -37 40 -34 40 3 0 23
-18 44 -40z m-7935 7 c0 -2 -17 -19 -37 -38 -21 -19 -29 -23 -18 -9 11 13 25
30 30 37 9 11 25 18 25 10z m30 -245 c0 -4 -9 -8 -20 -9 -11 -1 -20 2 -20 8 0
5 9 9 20 9 11 0 20 -4 20 -8z m7890 0 c0 -4 -9 -8 -20 -8 -11 0 -20 4 -20 8 0
4 9 8 20 8 11 0 20 -4 20 -8z m1400 -152 c8 -5 11 -10 5 -10 -5 0 -17 5 -25
10 -8 5 -10 10 -5 10 6 0 17 -5 25 -10z m-10760 -19 c-8 -5 -26 -11 -40 -15
-21 -5 -20 -3 5 9 32 15 60 20 35 6z m9720 -37 c-11 -22 -19 -31 -20 -21 0 18
30 71 36 64 2 -2 -5 -21 -16 -43z m1125 26 c13 -6 15 -9 5 -9 -8 0 -22 4 -30
9 -18 12 -2 12 25 0z m-7489 -140 c15 -22 25 -43 22 -45 -5 -5 -58 69 -58 80
0 13 12 2 36 -35z m4094 -5 c-33 -48 -48 -60 -29 -22 11 22 49 67 56 67 2 0
-10 -20 -27 -45z m-199 -92 c13 -16 12 -17 -3 -4 -10 7 -18 15 -18 17 0 8 8 3
21 -13z m-3468 0 c-7 -2 -19 -2 -25 0 -7 3 -2 5 12 5 14 0 19 -2 13 -5z m3250
0 c-7 -2 -19 -2 -25 0 -7 3 -2 5 12 5 14 0 19 -2 13 -5z m-303 -53 c-8 -5 -19
-10 -25 -10 -5 0 -3 5 5 10 8 5 20 10 25 10 6 0 3 -5 -5 -10z m-3138 -31 c37
-19 58 -39 40 -39 -5 0 -15 6 -21 14 -6 7 -32 19 -56 26 -25 7 -45 17 -45 22
0 11 31 2 82 -23z m3692 23 c3 -5 -15 -13 -38 -20 -24 -6 -58 -24 -76 -39 -29
-24 -31 -24 -19 -5 8 13 37 34 64 47 56 27 62 29 69 17z m-5364 -234 c41 -6
165 -14 275 -17 l200 -8 -172 -1 c-95 -1 -173 -6 -173 -10 0 -5 33 -19 74 -30
53 -16 124 -25 257 -32 101 -6 200 -15 219 -19 47 -12 16 -12 -105 -1 -55 5
-154 9 -220 10 -116 2 -122 3 -190 38 -61 31 -79 36 -140 36 -103 -1 -353 -21
-404 -34 -24 -6 -49 -9 -55 -7 -17 6 166 47 209 47 61 0 35 10 -53 20 -75 8
-287 -1 -352 -16 -17 -3 -22 -2 -15 4 8 9 114 20 325 36 65 5 233 -4 320 -16z
m1745 15 c-16 -3 -35 -9 -41 -14 -5 -4 -280 -10 -610 -13 -542 -4 -566 -4
-249 5 193 5 451 13 575 17 250 10 371 11 325 5z m979 -43 c12 0 172 -106 181
-120 4 -6 -17 4 -47 23 -29 19 -77 47 -107 61 -29 15 -63 36 -74 47 -12 10
-24 19 -29 19 -4 0 -8 5 -8 10 0 6 17 -1 37 -15 21 -14 42 -25 47 -25z m1561
15 c-22 -19 -44 -34 -50 -35 -5 0 -35 -15 -65 -33 -54 -33 -101 -55 -87 -41 3
4 15 12 25 18 11 6 39 24 63 40 43 29 139 84 149 85 3 0 -13 -15 -35 -34z
m1573 15 c268 -6 514 -12 547 -14 33 -2 -210 -2 -539 0 -330 3 -605 9 -610 14
-6 4 -27 11 -46 13 -19 3 9 4 63 1 54 -2 317 -8 585 -14z m1605 -2 c76 -6 140
-15 144 -20 3 -6 -6 -8 -23 -4 -67 14 -274 24 -353 16 -93 -10 -117 -20 -50
-21 46 0 239 -46 204 -48 -11 0 -36 4 -55 10 -36 11 -285 32 -400 33 -55 1
-76 -4 -140 -35 -71 -34 -81 -36 -185 -38 -60 -1 -162 -6 -225 -11 -134 -11
-148 -11 -100 1 19 4 120 13 224 19 104 6 196 14 205 19 9 5 32 11 52 15 19 3
44 13 55 21 17 13 -1 15 -161 16 l-180 3 195 6 c107 4 233 12 280 18 161 22
242 22 513 0z m-8224 -34 c8 -7 -104 -2 -134 6 -18 5 3 6 50 3 44 -3 82 -7 84
-9z m100 2 c-9 -8 -89 -13 -89 -6 0 5 19 10 43 12 41 3 54 1 46 -6z m8506 3
c-22 -4 -60 -7 -85 -7 l-45 1 55 7 c30 4 69 7 85 7 24 1 23 -1 -10 -8z m-145
-7 c0 -4 -18 -6 -40 -4 -22 2 -40 6 -40 8 0 2 18 4 40 4 22 0 40 -3 40 -8z
m-2684 -58 c-13 -27 -25 -13 -18 21 3 18 7 21 16 13 9 -9 9 -18 2 -34z m-3062
16 c5 -5 5 -17 1 -27 -8 -17 -9 -16 -12 3 -2 12 -14 27 -26 33 -21 11 -21 11
3 5 14 -3 29 -10 34 -14z m996 -1 c11 -6 6 -8 -16 -9 -16 0 -39 7 -50 15 -18
14 -16 14 16 8 19 -3 42 -9 50 -14z m1116 6 c-11 -8 -33 -15 -50 -15 -36 0
-29 10 16 20 49 12 55 11 34 -5z m4704 -61 c23 -9 39 -18 37 -20 -2 -3 -24 4
-48 15 -54 24 -45 27 11 5z m-10570 -3 c-8 -5 -26 -11 -40 -15 -21 -5 -20 -3
5 9 32 15 60 20 35 6z m3816 -28 c-7 -7 -26 7 -26 19 0 6 6 6 15 -2 9 -7 13
-15 11 -17z m2936 5 c-7 -7 -12 -8 -12 -2 0 14 12 26 19 19 2 -3 -1 -11 -7
-17z m-5434 7 c-3 -3 -54 -14 -114 -25 -60 -12 -180 -34 -267 -51 -87 -17
-163 -28 -170 -25 -7 2 -2 5 9 5 12 1 61 14 110 30 92 30 177 49 139 32 -19
-9 -19 -10 2 -10 12 -1 55 6 95 15 40 9 89 20 108 24 42 9 95 12 88 5z m8052
-15 c29 -11 137 -30 159 -29 12 0 11 3 -4 10 -35 16 43 -1 144 -32 51 -16 103
-29 115 -30 11 0 15 -3 8 -6 -7 -3 -72 7 -145 21 -73 14 -186 35 -252 46 -134
24 -195 44 -105 34 30 -3 66 -9 80 -14z m-8293 -6 c-3 -3 -12 -4 -19 -1 -8 3
-5 6 6 6 11 1 17 -2 13 -5z m-330 -90 c-3 -3 -12 -4 -19 -1 -8 3 -5 6 6 6 11
1 17 -2 13 -5z m1343 -65 c6 -10 7 -19 2 -19 -5 0 -14 12 -20 26 -14 29 2 24
18 -7z m73 -104 c22 -108 27 -155 17 -155 -4 0 -11 12 -15 27 -5 21 -8 24 -16
12 -6 -9 -9 16 -9 71 0 56 -5 95 -15 114 -22 41 -20 65 3 35 10 -13 26 -60 35
-104z m6266 70 c-10 -30 -19 -79 -19 -109 0 -48 -23 -116 -40 -116 -3 0 -4 20
-2 45 2 25 7 45 12 45 4 0 10 32 14 72 5 54 12 78 28 95 12 13 23 23 24 23 1
0 -6 -25 -17 -55z m49 35 c-7 -11 -17 -20 -22 -20 -5 0 -1 9 9 20 10 11 20 20
22 20 2 0 -2 -9 -9 -20z m-6091 -177 c-2 -16 -4 -3 -4 27 0 30 2 43 4 28 2
-16 2 -40 0 -55z m-107 23 c0 -26 -6 -18 -14 19 -5 22 -4 26 4 15 5 -8 10 -24
10 -34z m6004 0 c-3 -15 -8 -25 -11 -23 -2 3 -1 17 3 31 3 15 8 25 11 23 2 -3
1 -17 -3 -31z m-114 -103 c-10 -15 -11 -14 -6 7 3 14 7 48 8 75 l2 50 3 -57
c2 -32 -1 -66 -7 -75z m-2743 85 c-3 -8 -6 -5 -6 6 -1 11 2 17 5 13 3 -3 4
-12 1 -19z m-3127 -73 c6 17 9 13 19 -21 14 -54 36 -71 93 -75 49 -4 50 -2 14
41 -11 14 16 -13 61 -59 50 -51 92 -104 107 -137 14 -30 30 -54 34 -54 5 0 9
-6 9 -14 0 -12 -5 -11 -25 2 l-25 16 5 -52 c3 -28 2 -49 -2 -47 -5 3 -11 -7
-14 -21 -8 -31 18 -107 51 -147 24 -30 27 -54 15 -122 l-7 -40 -18 25 c-9 13
-17 31 -17 38 0 9 -6 12 -16 8 -13 -5 -14 -1 -9 23 8 36 -12 82 -26 60 -7 -11
-9 -11 -9 3 0 9 -10 20 -21 23 -14 5 -18 10 -10 14 9 6 9 15 0 37 -17 42 -19
162 -4 207 11 33 11 39 -2 44 -8 3 -18 0 -23 -6 -4 -7 -13 -12 -21 -11 -28 4
-39 0 -40 -17 0 -11 -3 -13 -6 -5 -2 6 -16 12 -30 12 -18 0 -24 -4 -20 -14 5
-11 -5 -17 -39 -22 -25 -3 -48 -4 -51 0 -4 3 3 6 15 6 24 0 38 16 20 23 -7 3
6 8 30 12 23 4 45 11 47 16 7 10 -72 174 -90 189 -10 9 -14 30 -13 69 1 48 2
50 6 16 3 -32 6 -36 12 -20z m-1300 -2 c0 -8 -38 17 -51 33 -9 11 -2 9 19 -6
17 -13 32 -25 32 -27z m8610 44 c0 -2 -10 -12 -22 -23 l-23 -19 19 23 c18 21
26 27 26 19z m-7221 -39 c0 -27 -2 -29 -8 -13 -5 11 -6 26 -4 33 8 21 13 13
12 -20z m5871 -63 c-21 -32 -90 -173 -93 -189 -1 -5 17 -13 40 -18 31 -7 40
-13 36 -23 -4 -11 3 -15 23 -16 19 -1 23 -3 11 -6 -30 -8 -87 7 -87 21 0 11
-40 23 -97 28 -7 1 -13 5 -13 10 0 4 -10 8 -21 8 -19 0 -21 -4 -14 -32 15 -60
14 -190 0 -225 -10 -24 -11 -33 -2 -33 6 0 1 -7 -11 -16 -12 -8 -22 -23 -23
-32 0 -14 -2 -13 -9 3 -7 19 -8 19 -18 -6 -5 -14 -8 -38 -5 -55 3 -19 1 -25
-5 -16 -6 9 -13 2 -25 -28 -8 -22 -20 -40 -25 -40 -8 0 -22 67 -22 110 0 9 13
33 29 53 39 50 58 120 41 152 -8 15 -10 39 -6 64 7 45 2 49 -26 24 -16 -14
-18 -15 -18 0 0 9 4 19 10 22 5 3 21 30 35 58 15 32 52 79 97 122 40 39 64 60
54 48 l-19 -23 46 0 c58 0 84 23 94 82 l7 43 7 -35 6 -35 3 40 2 40 8 -35 c7
-27 5 -41 -10 -65z m-4585 47 c5 -14 9 -13 20 8 14 24 14 22 15 -30 0 -93 43
-140 141 -155 42 -6 47 -5 52 15 3 13 10 19 17 15 6 -4 20 1 30 10 17 15 18
15 16 -2 0 -10 -9 -24 -18 -31 -25 -18 -23 -25 17 -46 19 -11 35 -23 35 -28 0
-5 -13 0 -29 12 -40 28 -55 5 -17 -25 29 -23 66 -73 66 -89 0 -6 -14 8 -30 31
-37 50 -52 57 -73 32 -9 -10 -27 -19 -39 -18 -21 1 -21 2 5 12 40 16 33 27
-19 27 -40 0 -45 2 -39 20 5 15 -4 26 -36 49 -23 17 -52 45 -65 63 l-24 32 0
-49 c0 -34 10 -69 36 -122 36 -75 41 -110 8 -54 -10 16 -22 27 -27 24 -6 -3
-7 -1 -4 4 4 6 -2 31 -13 54 -14 31 -20 66 -20 117 0 50 -6 85 -19 112 -13 26
-14 37 -5 33 7 -2 15 -12 19 -21z m3185 6 l0 -21 23 21 c32 30 43 28 18 -4
-17 -21 -21 -41 -21 -99 0 -83 -10 -116 -59 -203 -47 -83 -52 -64 -7 26 26 50
36 82 36 116 l0 47 -39 -38 c-21 -21 -51 -48 -67 -59 -25 -19 -27 -24 -15 -38
12 -14 8 -16 -38 -16 -58 0 -66 -12 -18 -28 28 -9 29 -10 8 -11 -14 -1 -35 8
-47 20 l-21 20 -43 -48 c-35 -40 -40 -43 -27 -17 9 18 30 43 47 57 16 14 30
33 30 42 0 15 -4 15 -36 -4 -19 -12 -32 -16 -29 -11 3 6 19 17 36 25 32 17 38
42 12 53 -10 4 -18 18 -19 31 l-1 24 18 -21 c9 -12 24 -20 32 -16 9 3 16 -3
20 -16 5 -20 10 -21 49 -15 95 15 143 66 141 150 0 30 3 55 8 55 5 0 9 -10 9
-22z m1557 -20 c-3 -7 -5 -2 -5 12 0 14 2 19 5 13 2 -7 2 -19 0 -25z m-6280
-25 c-3 -10 -5 -4 -5 12 0 17 2 24 5 18 2 -7 2 -21 0 -30z m-1722 -41 c-3 -17
-15 -38 -26 -48 -10 -9 -19 -31 -20 -48 -1 -17 -5 -42 -10 -56 -6 -17 -7 -7
-4 34 5 52 4 57 -10 46 -8 -7 -15 -8 -15 -2 0 5 7 15 15 22 8 7 13 16 10 20
-3 4 6 11 20 14 15 4 27 16 31 32 9 35 17 22 9 -14z m8012 1 c-3 -10 -5 -4 -5
12 0 17 2 24 5 18 2 -7 2 -21 0 -30z m1753 -18 c11 -4 18 -10 15 -15 -3 -5 3
-13 12 -19 17 -9 17 -10 0 -23 -14 -11 -15 -19 -8 -45 5 -18 6 -35 1 -38 -8
-5 -20 42 -20 81 0 13 -4 24 -10 24 -12 0 -25 26 -34 65 l-6 30 15 -27 c8 -15
24 -30 35 -33z m-10175 8 c-21 -7 -46 -20 -55 -28 -22 -20 -36 -19 -19 1 17
21 91 53 103 46 5 -3 -8 -11 -29 -19z m10609 -23 c16 -16 11 -15 -29 5 -27 14
-55 25 -62 25 -8 0 -11 4 -8 10 8 12 73 -14 99 -40z m-8472 6 c8 5 9 -1 4 -17
-20 -67 -42 -159 -39 -163 2 -2 24 -1 48 2 30 3 45 1 45 -7 0 -6 10 -12 23
-13 12 -1 -12 -4 -53 -7 l-75 -6 -27 -130 c-33 -159 -50 -352 -42 -465 6 -85
6 -85 -30 -140 -19 -30 -36 -50 -36 -44 0 6 12 29 27 50 26 39 26 40 29 239 2
181 5 213 33 344 17 79 30 146 28 147 -1 1 -36 -4 -77 -12 -89 -17 -82 -16
-76 -5 3 4 34 14 68 21 35 6 70 16 79 21 11 5 22 42 35 116 10 59 20 98 22 85
2 -13 8 -20 14 -16z m6299 -23 c1 -7 2 -16 3 -20 2 -5 6 -34 10 -66 5 -32 14
-64 22 -71 7 -8 42 -19 77 -26 35 -6 70 -16 78 -21 19 -12 6 -11 -78 5 -87 16
-84 27 -47 -140 22 -101 27 -150 30 -327 3 -189 6 -211 24 -237 11 -15 20 -32
20 -36 0 -4 8 -16 18 -27 9 -11 11 -17 5 -13 -7 4 -27 28 -45 53 l-31 46 -2
191 c-2 183 -17 298 -62 484 -5 20 -11 22 -82 23 -42 1 -64 4 -48 6 15 2 27 9
27 15 0 7 16 9 45 5 25 -4 45 -3 45 1 0 4 -9 41 -20 82 -11 41 -20 78 -20 81
0 12 30 5 31 -8z m-6564 -49 c-3 -3 -12 -4 -19 -1 -8 3 -5 6 6 6 11 1 17 -2
13 -5z m-40 -10 c-3 -3 -12 -4 -19 -1 -8 3 -5 6 6 6 11 1 17 -2 13 -5z m1145
-56 c-43 -63 -72 -86 -133 -108 -63 -23 -59 -23 -59 -11 0 5 9 13 20 16 11 4
42 23 68 42 36 28 41 30 23 9 -29 -31 -15 -35 23 -5 26 21 37 46 14 33 -7 -4
-10 -4 -6 0 3 4 9 6 12 4 3 -1 17 14 32 35 14 21 28 36 31 33 3 -2 -9 -24 -25
-48z m4618 -4 c0 4 21 -11 48 -34 26 -23 64 -51 84 -61 59 -30 52 -37 -15 -15
-66 22 -125 72 -160 137 l-18 34 30 -35 c17 -19 31 -31 31 -26z m-5860 22 c0
-2 -13 -9 -30 -15 -35 -12 -41 -5 -7 9 25 10 37 12 37 6z m7136 -22 c18 -14
18 -14 -6 -3 -31 14 -36 19 -24 19 6 0 19 -7 30 -16z m-5097 -245 c11 -46 31
-109 44 -139 41 -94 106 -354 107 -428 0 -40 -5 -49 -56 -100 -32 -32 -51 -49
-44 -39 18 25 8 30 -36 18 -60 -17 -50 -6 17 18 72 27 99 51 99 89 0 19 -3 23
-9 13 -5 -8 -7 4 -4 32 7 56 -16 159 -73 337 -23 74 -50 167 -59 205 -8 39
-18 79 -21 90 -4 17 -3 18 5 4 6 -9 19 -54 30 -100z m3011 16 c-9 -44 -34
-131 -54 -194 -56 -173 -86 -306 -80 -360 3 -34 2 -41 -5 -26 -9 19 -10 18
-10 -5 -2 -47 24 -70 129 -114 8 -3 -2 -4 -22 -1 -37 6 -46 -1 -30 -21 4 -5
-14 12 -40 39 -26 26 -51 59 -54 72 -12 47 58 339 110 463 14 33 30 82 36 109
17 76 31 125 35 122 2 -2 -5 -40 -15 -84z m-6114 -150 c-11 -8 -25 -15 -30
-15 -6 0 -2 7 8 15 11 8 25 15 30 15 6 0 2 -7 -8 -15z m9224 0 c16 -19 0 -19
-26 0 -16 12 -16 14 -3 15 9 0 22 -7 29 -15z m-7230 -56 c0 -6 -4 -7 -10 -4
-5 3 -10 11 -10 16 0 6 5 7 10 4 6 -3 10 -11 10 -16z m-1142 -41 c-6 -18 -13
-27 -15 -21 -4 11 13 53 22 53 2 0 -1 -15 -7 -32z m7521 -38 c0 -8 -6 0 -14
19 -8 18 -15 36 -15 40 1 13 29 -45 29 -59z m-6821 -165 c14 -26 18 -41 11
-46 -15 -9 39 -49 66 -49 13 0 25 -7 29 -15 7 -19 0 -19 -55 0 l-44 15 55 -50
c30 -27 61 -50 68 -50 6 0 12 -4 12 -10 0 -12 65 -45 108 -55 18 -4 31 -9 28
-12 -4 -4 -87 18 -124 33 -8 4 -10 0 -5 -11 3 -10 34 -30 67 -46 34 -15 55
-28 48 -29 -30 -1 -114 53 -134 85 -11 19 -59 65 -106 101 -48 37 -93 74 -99
82 -22 26 -14 37 10 15 25 -24 60 -43 77 -43 11 0 -24 49 -69 96 -15 15 -17
24 -10 31 6 6 11 28 11 50 0 21 5 44 11 52 10 11 13 2 17 -45 3 -33 15 -76 28
-99z m6152 97 c4 -26 11 -55 15 -64 5 -12 3 -18 -6 -18 -8 0 -27 -21 -42 -47
-15 -25 -31 -43 -34 -40 -3 4 0 13 7 22 11 13 10 14 -6 8 -15 -6 -14 1 10 42
26 44 32 66 35 134 2 37 14 16 21 -37z m-6899 -25 c-13 -13 -15 1 -4 30 7 17
8 17 11 -1 2 -10 -1 -23 -7 -29z m7601 13 c3 -16 3 -30 1 -30 -7 0 -21 45 -16
53 7 13 11 8 15 -23z m-7960 -11 c-13 -5 -49 -11 -80 -14 l-57 -5 65 14 c79
16 103 18 72 5z m8408 -4 c25 0 56 3 70 7 14 4 9 1 -10 -8 -37 -17 -114 -14
-162 6 -17 7 -13 8 17 2 22 -4 60 -7 85 -7z m-4249 -4 c6 9 9 -4 9 -36 0 -28
6 -75 14 -105 8 -30 17 -77 20 -105 5 -44 5 -46 -5 -17 -6 20 -14 30 -21 26
-7 -5 -9 1 -5 18 4 14 2 41 -5 59 -10 29 -12 31 -19 13 -4 -10 -8 -36 -8 -57
-1 -21 -5 -36 -10 -32 -6 3 -14 -14 -19 -37 -6 -24 -10 -34 -11 -23 0 11 10
69 24 130 14 62 23 125 20 145 -3 19 -2 29 1 21 5 -11 8 -11 15 0z m-3821 -31
c-6 -11 -13 -20 -16 -20 -2 0 0 9 6 20 6 11 13 20 16 20 2 0 0 -9 -6 -20z
m327 -182 c9 -10 11 -18 6 -18 -21 0 -32 28 -37 95 l-5 70 10 -65 c5 -35 17
-72 26 -82z m6618 100 c-4 -9 -51 -50 -105 -93 -55 -42 -102 -85 -105 -94 -8
-27 -45 -56 -97 -79 -67 -29 -60 -16 7 14 30 14 60 34 65 45 13 23 12 23 -33
4 -20 -8 -42 -15 -49 -14 -7 0 5 7 27 15 22 8 47 22 55 32 9 9 27 24 42 32 29
17 98 77 98 85 0 3 -23 -4 -51 -14 -37 -15 -47 -16 -38 -5 6 8 8 14 3 15 -13
1 56 19 86 23 30 3 62 19 80 41 15 18 23 14 15 -7z m392 -45 c-3 -10 -5 -4 -5
12 0 17 2 24 5 18 2 -7 2 -21 0 -30z m-12 -52 c-3 -12 -10 -21 -15 -21 -4 0
-3 11 3 24 14 29 22 27 12 -3z m-5501 -30 c-34 -16 -72 -44 -87 -62 -15 -19
-27 -29 -27 -23 0 6 9 19 20 29 10 9 18 22 17 28 -1 5 23 20 53 33 79 33 97
29 24 -5z m4015 3 c33 -15 59 -30 56 -33 -2 -4 7 -20 20 -37 19 -24 31 -29 72
-31 26 -1 105 -4 175 -7 69 -2 137 -7 150 -11 59 -17 107 -38 103 -45 -3 -5
-43 -11 -90 -15 -47 -4 -82 -11 -79 -16 3 -5 15 -9 27 -10 12 0 17 -3 10 -5
-6 -3 -36 1 -67 9 -55 15 -56 15 -94 -12 -21 -16 -50 -43 -66 -61 -26 -32 -28
-38 -22 -99 5 -63 5 -64 -8 -31 -7 19 -16 34 -19 33 -10 -4 -11 0 -2 25 4 13
4 45 0 70 l-7 46 -31 -35 c-18 -19 -26 -28 -19 -19 22 30 14 45 -13 20 -13
-12 -22 -27 -19 -32 3 -5 1 -14 -4 -21 -14 -16 -21 -78 -11 -98 5 -11 3 -16
-7 -16 -11 0 -14 15 -14 62 0 66 5 76 79 165 19 23 28 40 20 39 -8 -1 -21 0
-29 3 -63 24 -191 58 -216 58 -18 0 -74 -20 -127 -45 -55 -26 -121 -48 -159
-55 -36 -5 -87 -19 -113 -31 -25 -11 -105 -31 -177 -44 -119 -22 -144 -31
-275 -94 -140 -69 -144 -70 -176 -57 l-32 15 31 -6 c24 -4 60 10 171 65 77 39
157 74 179 77 21 4 53 15 71 25 24 14 44 17 86 13 59 -6 122 9 131 32 3 8 17
15 31 15 14 0 45 9 67 20 28 13 45 17 52 10 12 -12 26 -13 26 -1 0 22 -115 35
-168 19 -50 -15 -50 -2 0 19 58 26 102 37 93 23 -8 -13 44 9 65 27 12 11 6 13
-36 13 -59 0 -146 24 -164 45 -11 13 -8 13 17 0 69 -35 162 -39 295 -13 61 11
65 10 173 -38 58 -26 125 -40 125 -27 0 16 -64 71 -114 97 -63 34 -44 33 33 0z
m-3499 -10 c0 -14 -101 -47 -164 -53 -67 -6 -70 -7 -46 -20 13 -8 40 -15 60
-17 30 -3 150 -48 150 -57 0 -2 -16 -1 -35 1 -19 2 -35 8 -35 13 0 10 -100 5
-137 -6 -13 -4 -23 -11 -23 -16 0 -11 11 -11 29 0 10 6 27 3 52 -10 21 -10 48
-19 59 -19 11 0 34 -10 50 -22 19 -14 49 -23 86 -26 36 -3 51 -8 42 -13 -8 -6
-1 -9 22 -9 33 1 34 2 16 15 -19 15 -19 15 1 15 11 0 26 -6 32 -14 7 -8 34
-19 62 -25 27 -6 113 -43 191 -82 112 -56 148 -70 172 -66 l31 6 -30 -14 c-35
-15 -30 -17 -205 69 -100 49 -134 60 -246 81 -71 13 -152 34 -180 45 -27 12
-76 26 -109 31 -37 5 -100 27 -159 55 -92 43 -102 46 -153 40 -30 -4 -65 -12
-76 -18 -12 -6 -44 -16 -72 -22 -64 -14 -67 -32 -19 -91 39 -48 53 -97 46
-158 -3 -24 -9 -37 -19 -37 -12 0 -13 3 -3 15 22 26 3 92 -36 121 -18 14 -36
34 -39 45 -4 11 -10 17 -14 14 -14 -8 -20 -88 -9 -109 8 -15 7 -22 -5 -31 -8
-6 -17 -22 -20 -35 -2 -14 -5 7 -6 45 -2 77 -17 103 -93 158 -35 26 -37 26
-85 12 -59 -18 -89 -19 -48 -1 28 12 25 13 -62 20 -95 8 -125 20 -76 32 15 4
33 10 38 14 6 4 25 11 44 15 31 7 82 9 371 19 72 2 99 8 175 40 87 37 91 38
143 26 92 -20 229 -17 282 8 54 25 50 23 50 16z m1477 -81 c-3 -10 -5 -4 -5
12 0 17 2 24 5 18 2 -7 2 -21 0 -30z m60 -15 c-3 -7 -5 -2 -5 12 0 14 2 19 5
13 2 -7 2 -19 0 -25z m-120 -10 c-3 -8 -6 -5 -6 6 -1 11 2 17 5 13 3 -3 4 -12
1 -19z m2850 16 c-3 -3 -12 -4 -19 -1 -8 3 -5 6 6 6 11 1 17 -2 13 -5z m-2528
-181 c-40 -60 -39 -58 -39 -46 0 11 57 93 66 93 3 0 -9 -21 -27 -47z m-2926
13 c18 -13 51 -33 75 -45 23 -12 42 -26 42 -31 0 -14 -5 -13 -68 19 -105 55
-122 71 -84 80 2 1 18 -10 35 -23z m2406 2 c8 -13 21 -33 29 -45 27 -43 3 -23
-28 22 -17 25 -27 45 -23 45 5 0 14 -10 22 -22z m2981 6 c0 -6 -134 -81 -157
-88 -43 -14 -23 11 35 42 31 17 66 37 77 45 16 12 45 13 45 1z m-2813 -16 c-3
-8 -6 -5 -6 6 -1 11 2 17 5 13 3 -3 4 -12 1 -19z m-2266 -96 c-60 -41 -225
-95 -426 -138 -158 -33 -445 -84 -470 -83 -11 0 27 10 85 20 57 11 107 23 110
27 3 4 55 16 115 25 218 35 502 109 575 152 34 20 40 18 11 -3z m4859 -50
c114 -36 286 -75 435 -99 61 -9 112 -20 115 -24 3 -4 25 -12 50 -18 l45 -10
-50 5 c-93 10 -439 83 -540 115 -102 32 -225 83 -225 94 0 3 17 -3 38 -14 20
-10 80 -32 132 -49z m-3180 18 c23 -7 22 -8 -10 -8 -19 0 -60 3 -90 8 l-55 7
65 1 c36 0 76 -4 90 -8z m1509 6 c-2 -2 -44 -6 -94 -9 -54 -4 -78 -2 -60 2 30
9 162 14 154 7z m-1386 -13 c-7 -2 -19 -2 -25 0 -7 3 -2 5 12 5 14 0 19 -2 13
-5z m457 -9 c0 -8 -4 -12 -10 -9 -5 3 -10 10 -10 16 0 5 5 9 10 9 6 0 10 -7
10 -16z m673 9 c-7 -2 -19 -2 -25 0 -7 3 -2 5 12 5 14 0 19 -2 13 -5z m-668
-59 c9 -15 12 -23 6 -20 -11 7 -35 46 -28 46 3 0 12 -12 22 -26z m191 -2 c-18
-16 -18 -16 -6 6 6 13 14 21 18 18 3 -4 -2 -14 -12 -24z m3097 -109 c-7 -2
-21 -2 -30 0 -10 3 -4 5 12 5 17 0 24 -2 18 -5z m60 -10 c-7 -2 -21 -2 -30 0
-10 3 -4 5 12 5 17 0 24 -2 18 -5z m-6540 -10 c-7 -2 -21 -2 -30 0 -10 3 -4 5
12 5 17 0 24 -2 18 -5z m314 1 c-3 -3 -12 -4 -19 -1 -8 3 -5 6 6 6 11 1 17 -2
13 -5z m6286 -1 c-7 -2 -21 -2 -30 0 -10 3 -4 5 12 5 17 0 24 -2 18 -5z
m-6666 -9 c-3 -3 -12 -4 -19 -1 -8 3 -5 6 6 6 11 1 17 -2 13 -5z m316 -1 c-7
-2 -21 -2 -30 0 -10 3 -4 5 12 5 17 0 24 -2 18 -5z m6100 0 c-7 -2 -19 -2 -25
0 -7 3 -2 5 12 5 14 0 19 -2 13 -5z m310 0 c-7 -2 -19 -2 -25 0 -7 3 -2 5 12
5 14 0 19 -2 13 -5z m-6480 -10 c-7 -2 -21 -2 -30 0 -10 3 -4 5 12 5 17 0 24
-2 18 -5z m6245 0 c-10 -2 -26 -2 -35 0 -10 3 -2 5 17 5 19 0 27 -2 18 -5z
m-6320 -10 c-10 -2 -26 -2 -35 0 -10 3 -2 5 17 5 19 0 27 -2 18 -5z m6390 0
c-10 -2 -26 -2 -35 0 -10 3 -2 5 17 5 19 0 27 -2 18 -5z m-6455 -10 c-7 -2
-21 -2 -30 0 -10 3 -4 5 12 5 17 0 24 -2 18 -5z m6520 0 c-7 -2 -21 -2 -30 0
-10 3 -4 5 12 5 17 0 24 -2 18 -5z m-6638 -19 c-38 -8 -74 -12 -80 -10 -12 4
90 24 125 24 14 0 -6 -7 -45 -14z m6698 9 c-7 -2 -21 -2 -30 0 -10 3 -4 5 12
5 17 0 24 -2 18 -5z m127 -20 c46 -9 80 -18 74 -20 -5 -2 -50 5 -99 16 -50 10
-83 19 -75 20 8 1 53 -7 100 -16z m-6927 -10 c-7 -2 -19 -2 -25 0 -7 3 -2 5
12 5 14 0 19 -2 13 -5z m-50 -10 c-7 -2 -19 -2 -25 0 -7 3 -2 5 12 5 14 0 19
-2 13 -5z m-46 -9 c-3 -3 -12 -4 -19 -1 -8 3 -5 6 6 6 11 1 17 -2 13 -5z
m7150 0 c-3 -3 -12 -4 -19 -1 -8 3 -5 6 6 6 11 1 17 -2 13 -5z m40 -10 c-3 -3
-12 -4 -19 -1 -8 3 -5 6 6 6 11 1 17 -2 13 -5z m-3830 -26 c-3 -8 -6 -5 -6 6
-1 11 2 17 5 13 3 -3 4 -12 1 -19z m3870 16 c-3 -3 -12 -4 -19 -1 -8 3 -5 6 6
6 11 1 17 -2 13 -5z m-7620 -40 c-3 -3 -12 -4 -19 -1 -8 3 -5 6 6 6 11 1 17
-2 13 -5z m7968 -9 c54 -17 33 -18 -30 -1 -27 8 -41 14 -30 14 11 0 38 -5 60
-13z m-8008 -1 c-3 -3 -12 -4 -19 -1 -8 3 -5 6 6 6 11 1 17 -2 13 -5z m3800
-16 c-3 -8 -6 -5 -6 6 -1 11 2 17 5 13 3 -3 4 -12 1 -19z m-3842 7 c-5 -3 -84
-27 -175 -54 -91 -28 -221 -72 -290 -99 -161 -63 -171 -67 -136 -46 72 41 550
204 596 203 8 0 11 -2 5 -4z m4222 -27 c-3 -7 -5 -2 -5 12 0 14 2 19 5 13 2
-7 2 -19 0 -25z m4063 -30 c144 -46 322 -113 359 -134 34 -20 20 -15 -123 40
-65 26 -184 67 -265 92 -164 50 -181 56 -131 48 19 -4 91 -24 160 -46z m-3679
-85 c13 -16 12 -17 -3 -4 -10 7 -18 15 -18 17 0 8 8 3 21 -13z m-5421 -168 c0
-2 -10 -9 -22 -15 -22 -11 -22 -10 -4 4 21 17 26 19 26 11z"/>
<path d="M8480 6730 c-11 -7 -2 -10 33 -10 26 0 47 5 47 10 0 13 -60 13 -80 0z"/>
<path d="M10655 6730 c3 -5 27 -10 53 -9 35 0 42 3 27 9 -28 12 -88 12 -80 0z"/>
<path d="M7545 6684 c-9 -14 -14 -28 -12 -31 3 -3 13 9 22 26 19 38 14 41 -10
5z"/>
<path d="M11604 5816 c-32 -31 -55 -59 -51 -63 4 -4 33 18 64 50 74 73 63 84
-13 13z"/>
<path d="M11495 5781 c-27 -16 -55 -38 -62 -49 -12 -20 -11 -20 17 -10 17 5
33 14 36 19 3 5 9 7 14 4 4 -3 13 2 20 10 7 8 9 15 5 15 -5 0 0 9 10 20 24 26
19 25 -40 -9z"/>
<path d="M11421 5754 c-12 -15 -21 -31 -21 -37 0 -6 1 -8 3 -6 1 2 15 19 31
37 17 17 25 32 19 32 -7 0 -21 -12 -32 -26z"/>
<path d="M11408 5648 c-16 -5 -28 -14 -28 -18 0 -5 14 -4 30 1 17 6 30 15 30
20 0 5 -1 9 -2 8 -2 0 -15 -5 -30 -11z"/>
<path d="M11275 5615 c-16 -7 -23 -14 -15 -14 8 0 26 6 40 14 32 18 14 18 -25
0z"/>
<path d="M11175 5570 c-22 -10 -36 -19 -32 -19 12 -1 77 27 77 33 0 7 3 8 -45
-14z"/>
<path d="M11215 5550 c-3 -5 3 -10 15 -10 12 0 18 5 15 10 -3 6 -10 10 -15 10
-5 0 -12 -4 -15 -10z"/>
<path d="M11030 5454 l-35 -15 24 -13 c18 -10 20 -15 10 -19 -10 -4 -10 -6 3
-6 10 -1 26 9 37 20 16 17 27 20 58 16 l38 -6 -40 19 c-48 23 -50 23 -95 4z"/>
<path d="M11128 5403 c6 -2 18 -2 25 0 6 3 1 5 -13 5 -14 0 -19 -2 -12 -5z"/>
<path d="M11430 5315 c-7 -9 -20 -15 -29 -14 -31 3 -41 -1 -41 -17 0 -9 -6
-22 -14 -28 -20 -15 -25 -78 -7 -84 9 -3 11 0 6 7 -4 7 8 5 32 -5 21 -9 47
-17 58 -18 36 -3 65 -17 75 -37 17 -31 57 -24 76 13 27 51 0 164 -46 188 -29
15 -96 12 -110 -5z"/>
<path d="M11280 5243 c0 -10 4 -25 10 -33 8 -12 10 -12 16 3 7 20 -1 47 -16
47 -5 0 -10 -8 -10 -17z"/>
<path d="M9173 4933 c15 -2 39 -2 55 0 15 2 2 4 -28 4 -30 0 -43 -2 -27 -4z"/>
<path d="M9983 4933 c15 -2 39 -2 55 0 15 2 2 4 -28 4 -30 0 -43 -2 -27 -4z"/>
<path d="M9440 4925 c0 -2 12 -11 28 -20 l27 -16 -37 6 c-23 4 -38 2 -38 -4 0
-6 -13 -9 -29 -8 -16 1 -27 5 -24 10 2 4 -1 7 -6 7 -6 0 -11 -7 -11 -16 0 -8
-4 -12 -10 -9 -14 8 -13 -2 5 -63 12 -40 23 -55 47 -68 31 -16 32 -16 50 6 10
12 18 30 18 39 0 9 9 27 20 41 11 14 20 30 20 36 0 6 14 17 31 24 16 7 26 16
22 20 -9 8 -113 22 -113 15z"/>
<path d="M9710 4923 c-47 -6 -59 -19 -29 -33 27 -12 30 -17 71 -103 15 -32 32
-57 38 -57 35 0 67 34 80 84 7 28 15 57 18 65 3 9 1 12 -5 8 -6 -4 -13 -2 -15
5 -4 10 -10 10 -32 0 -21 -9 -32 -10 -42 -1 -10 8 -22 8 -44 1 -40 -14 -38 0
3 21 33 16 27 18 -43 10z"/>
<path d="M8623 4903 c9 -2 23 -2 30 0 6 3 -1 5 -18 5 -16 0 -22 -2 -12 -5z"/>
<path d="M10563 4903 c9 -2 23 -2 30 0 6 3 -1 5 -18 5 -16 0 -22 -2 -12 -5z"/>
<path d="M8695 4890 c3 -5 41 -9 83 -9 68 1 72 2 37 10 -57 11 -127 11 -120
-1z"/>
<path d="M9545 4861 c-48 -33 -60 -47 -74 -89 -17 -50 -17 -51 3 -56 11 -3 23
-2 26 2 17 24 89 55 75 33 -7 -12 28 -23 49 -15 9 3 13 10 10 15 -12 20 35 8
59 -15 33 -30 71 -25 61 8 -13 44 -40 90 -59 100 -11 6 -22 14 -25 17 -3 3
-19 13 -37 22 -31 16 -32 16 -88 -22z m85 -37 c-13 -14 -42 -12 -48 4 -2 6 9
10 27 10 24 -1 28 -4 21 -14z"/>
<path d="M10395 4890 c-23 -6 -12 -8 42 -9 39 0 75 4 78 9 7 12 -74 12 -120 0z"/>
<path d="M9572 4699 c-47 -10 -47 -14 -6 -38 32 -19 41 -20 65 -10 16 6 33 17
40 25 8 10 5 14 -18 19 -15 4 -32 8 -38 9 -5 1 -25 -1 -43 -5z"/>
<path d="M9517 4644 c5 -12 3 -15 -6 -9 -10 6 -11 2 -6 -16 16 -58 27 -78 41
-72 12 5 12 -1 -2 -29 -15 -33 -15 -37 1 -61 9 -15 21 -24 26 -21 5 3 8 0 7
-8 -6 -29 43 -19 77 15 l35 35 -25 48 c-21 39 -22 44 -6 30 18 -17 20 -17 29
1 5 10 13 33 17 52 5 26 4 32 -6 26 -9 -6 -11 -3 -6 9 4 11 -10 3 -35 -18 -23
-20 -47 -36 -53 -36 -6 0 -22 12 -36 26 -13 14 -32 30 -41 35 -14 8 -16 6 -11
-7z m33 -34 c0 -5 -4 -10 -10 -10 -5 0 -10 5 -10 10 0 6 5 10 10 10 6 0 10 -4
10 -10z m130 0 c0 -5 -2 -10 -4 -10 -3 0 -8 5 -11 10 -3 6 -1 10 4 10 6 0 11
-4 11 -10z"/>
<path d="M9440 4605 c0 -7 6 -18 13 -22 6 -4 18 -20 26 -35 16 -31 31 -37 31
-13 0 8 -5 15 -11 15 -6 0 -8 7 -5 16 3 8 2 13 -2 10 -10 -6 -43 30 -35 38 4
3 1 6 -5 6 -7 0 -12 -7 -12 -15z"/>
<path d="M9753 4605 c-7 -8 -9 -16 -4 -19 5 -3 12 1 15 10 8 22 4 25 -11 9z"/>
<path d="M9716 4565 c-18 -18 -20 -31 -8 -39 10 -6 38 41 30 49 -3 3 -13 -1
-22 -10z"/>
<path d="M9721 4492 c-13 -25 -14 -32 -2 -32 9 0 23 41 16 48 -2 2 -8 -5 -14
-16z"/>
<path d="M9480 4480 c6 -11 15 -20 21 -20 6 0 6 7 -1 20 -6 11 -15 20 -21 20
-6 0 -6 -7 1 -20z"/>
<path d="M9474 4447 c3 -10 13 -43 22 -75 24 -89 25 -90 34 -67 18 43 10 79
-26 120 -20 22 -33 32 -30 22z"/>
<path d="M9520 4443 c0 -5 7 -18 15 -29 8 -10 15 -37 15 -59 l0 -39 17 23 c15
22 15 26 -2 58 -19 35 -45 62 -45 46z"/>
<path d="M9659 4414 c-21 -32 -24 -44 -17 -64 10 -24 10 -24 18 -5 6 17 9 14
15 -17 4 -21 10 -38 14 -38 4 0 15 30 25 68 10 37 20 73 23 80 10 24 -13 11
-39 -25 -16 -20 -28 -30 -28 -22 0 8 5 20 11 26 6 6 9 17 7 23 -2 7 -15 -5
-29 -26z"/>
<path d="M9583 4298 c-46 -51 -52 -69 -42 -135 15 -108 41 -210 48 -190 8 22
23 22 35 -1 10 -18 27 50 47 186 l10 72 -32 45 c-18 25 -35 45 -39 45 -4 0
-16 -10 -27 -22z"/>
<path d="M9524 4052 c2 -29 8 -58 13 -63 7 -7 8 7 1 43 -13 74 -19 82 -14 20z"/>
<path d="M9676 4047 c-4 -32 -5 -61 -2 -64 7 -8 18 60 14 93 -3 21 -6 13 -12
-29z"/>
<path d="M5928 4753 c12 -2 32 -2 45 0 12 2 2 4 -23 4 -25 0 -35 -2 -22 -4z"/>
<path d="M13238 4753 c12 -2 32 -2 45 0 12 2 2 4 -23 4 -25 0 -35 -2 -22 -4z"/>
<path d="M6695 4044 c4 -10 9 -26 10 -34 5 -32 25 -70 37 -70 7 0 30 5 51 11
32 8 36 13 26 25 -6 8 -25 14 -41 14 -16 0 -27 4 -24 9 5 8 -25 40 -53 56 -11
6 -13 4 -6 -11z"/>
<path d="M6852 3761 c-9 -29 -10 -47 -3 -54 6 -6 12 2 16 26 11 57 1 78 -13
28z"/>
<path d="M6942 3570 c0 -14 2 -19 5 -12 2 6 2 18 0 25 -3 6 -5 1 -5 -13z"/>
<path d="M12476 4029 c-21 -17 -25 -24 -14 -30 9 -6 3 -9 -17 -9 -71 -1 -71
-36 0 -42 42 -3 54 9 69 75 8 33 -2 34 -38 6z"/>
<path d="M12351 3788 c0 -14 -3 -32 -6 -40 -6 -15 11 -45 20 -36 3 3 2 27 -3
54 -6 30 -10 39 -11 22z"/>
<path d="M8145 3970 c3 -5 16 -10 28 -10 18 0 19 2 7 10 -20 13 -43 13 -35 0z"/>
<path d="M8200 3949 c0 -5 5 -7 10 -4 6 3 10 8 10 11 0 2 -4 4 -10 4 -5 0 -10
-5 -10 -11z"/>
<path d="M11040 3970 c-13 -8 -13 -10 2 -10 9 0 20 5 23 10 8 13 -5 13 -25 0z"/>
<path d="M10990 3962 c0 -12 19 -26 26 -19 2 2 -2 10 -11 17 -9 8 -15 8 -15 2z"/>
<path d="M11936 3895 c6 -14 64 -55 79 -55 10 0 -67 69 -77 70 -4 0 -5 -7 -2
-15z"/>
<path d="M11441 3026 c2 -2 22 -6 44 -10 29 -5 36 -4 25 3 -13 10 -79 16 -69
7z"/>
<path d="M11396 2993 c-6 -14 -9 -15 -16 -4 -7 12 -15 10 -45 -7 -20 -12 -42
-22 -50 -22 -32 0 -22 -20 15 -31 38 -12 44 -10 115 25 41 21 73 42 69 47 -10
17 -81 10 -88 -8z"/>
<path d="M11753 2953 c9 -2 25 -2 35 0 9 3 1 5 -18 5 -19 0 -27 -2 -17 -5z"/>
<path d="M12028 2923 c12 -2 32 -2 45 0 12 2 2 4 -23 4 -25 0 -35 -2 -22 -4z"/>
<path d="M11255 2890 c-3 -6 1 -7 9 -4 18 7 21 14 7 14 -6 0 -13 -4 -16 -10z"/>
<path d="M11822 2888 c-11 -15 -15 -32 -13 -68 1 -24 2 -23 43 17 45 45 45 64
1 44 -23 -11 -25 -10 -13 3 7 9 8 16 2 16 -5 0 -14 -6 -20 -12z"/>
<path d="M10945 2820 c-4 -6 5 -10 20 -10 15 0 24 4 20 10 -3 6 -12 10 -20 10
-8 0 -17 -4 -20 -10z"/>
<path d="M7733 3023 c9 -2 23 -2 30 0 6 3 -1 5 -18 5 -16 0 -22 -2 -12 -5z"/>
<path d="M7732 3001 c-9 -5 12 -20 65 -45 72 -35 81 -37 115 -26 38 11 52 30
23 30 -9 0 -34 9 -57 21 -30 15 -43 18 -48 9 -5 -8 -9 -7 -13 4 -7 17 -62 22
-85 7z"/>
<path d="M7433 2953 c9 -2 23 -2 30 0 6 3 -1 5 -18 5 -16 0 -22 -2 -12 -5z"/>
<path d="M7133 2923 c15 -2 37 -2 50 0 12 2 0 4 -28 4 -27 0 -38 -2 -22 -4z"/>
<path d="M7375 2883 c5 -15 4 -16 -6 -5 -13 12 -49 17 -49 6 0 -4 18 -26 40
-50 43 -47 40 -48 44 21 1 23 -12 45 -26 45 -6 0 -7 -8 -3 -17z"/>
<path d="M7460 2823 c0 -12 38 -48 45 -41 3 2 -6 15 -20 28 -14 13 -25 19 -25
13z"/>
<path d="M9477 7565 c9 -46 25 -81 30 -68 2 6 -5 31 -16 55 -16 35 -19 37 -14
13z"/>
<path d="M9721 7552 c-8 -20 -16 -43 -18 -49 -3 -7 -1 -13 5 -13 9 0 37 89 29
96 -2 2 -9 -13 -16 -34z"/>
<path d="M9230 7538 c-30 -22 -74 -49 -96 -59 -23 -11 -45 -26 -48 -35 -6 -15
0 -16 46 -10 29 4 89 9 133 13 80 6 78 18 -5 24 -33 2 -33 2 10 8 42 6 45 8
48 39 3 24 -1 32 -13 32 -11 0 -15 5 -11 15 8 23 -4 18 -64 -27z"/>
<path d="M9925 7570 c3 -6 -1 -13 -10 -16 -9 -4 -21 -16 -25 -28 -8 -20 -9
-20 -10 -1 0 17 -2 17 -10 5 -16 -25 -12 -42 9 -35 11 3 22 1 26 -5 3 -5 23
-10 43 -11 44 -1 35 -5 -33 -15 l-50 -8 70 -7 c39 -4 98 -10 133 -14 53 -7 62
-6 62 8 0 9 -15 20 -34 27 -34 11 -148 87 -154 102 -2 4 -8 8 -13 8 -6 0 -7
-5 -4 -10z"/>
<path d="M9330 7518 c0 -16 4 -28 9 -28 18 0 20 17 6 36 -14 18 -14 18 -15 -8z"/>
<path d="M9438 7453 c7 -3 16 -2 19 1 4 3 -2 6 -13 5 -11 0 -14 -3 -6 -6z"/>
<path d="M9753 7453 c9 -2 23 -2 30 0 6 3 -1 5 -18 5 -16 0 -22 -2 -12 -5z"/>
<path d="M10180 7430 c0 -5 5 -10 11 -10 5 0 7 5 4 10 -3 6 -8 10 -11 10 -2 0
-4 -4 -4 -10z"/>
<path d="M9580 7370 c0 -5 11 -10 24 -10 14 0 28 5 31 10 4 6 -7 10 -24 10
-17 0 -31 -4 -31 -10z"/>
<path d="M9671 7364 c0 -11 3 -14 6 -6 3 7 2 16 -1 19 -3 4 -6 -2 -5 -13z"/>
<path d="M9534 7305 c3 -38 6 -101 7 -140 1 -65 2 -67 11 -35 13 44 5 200 -11
226 -10 15 -11 6 -7 -51z"/>
<path d="M9580 7340 c0 -5 5 -10 10 -10 6 0 10 -7 10 -16 0 -8 -3 -13 -7 -11
-5 3 -8 -54 -8 -126 0 -125 1 -132 20 -132 19 0 20 7 20 105 0 58 4 121 8 140
4 19 4 29 1 22 -3 -6 -10 -10 -15 -6 -14 9 -10 24 7 24 8 0 12 5 9 10 -3 6
-17 10 -31 10 -13 0 -24 -4 -24 -10z"/>
<path d="M9657 7298 c-3 -24 -2 -79 2 -123 l8 -80 1 61 c1 34 5 89 8 123 8 70
-10 88 -19 19z"/>
<path d="M9561 6894 c0 -11 3 -14 6 -6 3 7 2 16 -1 19 -3 4 -6 -2 -5 -13z"/>
<path d="M6130 6447 c3 -3 21 -17 40 -30 19 -13 59 -40 87 -60 29 -20 60 -37
69 -37 33 0 -15 37 -110 86 -50 25 -89 44 -86 41z"/>
<path d="M12987 6401 c-48 -26 -95 -55 -105 -65 -16 -18 -16 -18 9 -12 26 6
212 127 193 125 -5 0 -49 -22 -97 -48z"/>
<path d="M6272 6405 c3 -3 20 -10 37 -15 28 -8 31 -7 21 5 -7 8 -24 15 -38 15
-14 0 -23 -2 -20 -5z"/>
<path d="M6340 6361 c0 -6 26 -28 58 -50 53 -38 125 -112 164 -170 10 -14 18
-22 18 -18 0 15 -38 82 -69 121 -17 21 -28 42 -26 47 3 4 0 11 -6 15 -8 4 -9
3 -5 -4 4 -7 3 -12 -3 -12 -5 0 -13 5 -17 11 -8 13 -94 69 -106 69 -4 0 -8 -4
-8 -9z"/>
<path d="M12817 6346 c-71 -42 -154 -137 -172 -196 -7 -24 -6 -23 15 5 40 53
113 125 163 162 26 19 47 39 47 44 0 13 -10 10 -53 -15z"/>
<path d="M6616 5995 c7 -33 39 -73 50 -62 3 3 -8 25 -25 49 -31 41 -32 42 -25
13z"/>
<path d="M12568 5976 c-29 -45 -29 -59 1 -32 17 16 37 64 29 71 -2 1 -15 -16
-30 -39z"/>
<path d="M7588 5812 c30 -34 61 -62 70 -62 18 0 -42 67 -93 103 -22 16 -16 5
23 -41z"/>
<path d="M7775 5649 c8 -12 56 -32 62 -25 5 4 -50 36 -62 36 -3 0 -3 -5 0 -11z"/>
<path d="M7914 5615 c11 -8 27 -15 35 -15 10 1 7 6 -9 15 -33 19 -50 18 -26 0z"/>
<path d="M8010 5574 c0 -7 52 -25 57 -20 2 2 -10 8 -26 14 -17 6 -31 9 -31 6z"/>
<path d="M7970 5550 c-12 -8 -10 -10 8 -10 13 0 20 4 17 10 -7 12 -6 12 -25 0z"/>
<path d="M8096 5454 c-55 -20 -58 -26 -9 -18 35 5 43 3 52 -15 15 -27 51 -29
46 -2 -3 14 1 18 11 14 26 -10 15 6 -16 22 -34 18 -34 18 -84 -1z"/>
<path d="M8068 5403 c6 -2 18 -2 25 0 6 3 1 5 -13 5 -14 0 -19 -2 -12 -5z"/>
<path d="M15115 5315 c86 -39 144 -55 193 -54 46 1 45 2 -17 11 -36 5 -98 22
-139 38 -87 35 -108 38 -37 5z"/>
<path d="M7680 5315 c-7 -8 -16 -13 -19 -10 -4 2 -15 -12 -24 -31 -19 -39 -22
-125 -7 -155 13 -24 54 -25 72 -1 17 22 56 44 68 37 4 -3 29 4 55 15 25 11 43
15 40 10 -3 -6 -1 -10 5 -10 6 0 13 6 16 14 8 20 -11 81 -25 79 -6 -2 -11 6
-11 17 0 20 -9 24 -41 21 -9 -1 -22 5 -29 14 -16 19 -84 20 -100 0z"/>
<path d="M3778 5283 c7 -3 16 -2 19 1 4 3 -2 6 -13 5 -11 0 -14 -3 -6 -6z"/>
<path d="M3905 5281 c-83 -5 -93 -7 -60 -13 60 -11 116 -9 150 7 17 7 26 13
20 12 -5 0 -55 -3 -110 -6z"/>
<path d="M7910 5229 c0 -17 4 -28 10 -24 6 3 10 17 10 31 0 13 -4 24 -10 24
-5 0 -10 -14 -10 -31z"/>
<path d="M16519 5153 c-13 -16 -12 -17 4 -4 9 7 17 15 17 17 0 8 -8 3 -21 -13z"/>
<path d="M6976 2389 c-54 -10 -101 -21 -104 -24 -11 -10 60 -5 116 10 31 8 75
19 97 24 71 16 -5 9 -109 -10z"/>
<path d="M10130 2314 c0 -13 76 -131 91 -140 27 -16 17 9 -19 48 -21 24 -46
57 -55 73 -9 17 -16 25 -17 19z"/>
<path d="M9070 2304 c0 -6 -22 -38 -50 -72 -53 -65 -64 -88 -29 -56 30 27 93
124 85 131 -3 4 -6 2 -6 -3z"/>
<path d="M4364 2195 c-9 -14 -15 -28 -12 -30 2 -2 12 9 22 25 21 36 13 40 -10
5z"/>
<path d="M14830 2211 c0 -6 4 -13 10 -16 6 -3 7 1 4 9 -7 18 -14 21 -14 7z"/>
<path d="M9592 2143 c-15 -64 -38 -164 -56 -243 -8 -36 -14 -99 -13 -140 0
-41 2 -58 5 -37 2 20 7 35 13 32 13 -9 11 -66 -5 -165 -17 -99 -31 -330 -21
-330 27 0 85 26 88 39 4 14 5 14 6 0 0 -9 11 -19 24 -22 12 -3 33 -9 46 -13
l24 -7 -6 134 c-7 150 -17 230 -26 225 -3 -2 -6 27 -7 65 -1 49 3 69 12 73 9
3 14 21 14 44 0 39 -66 356 -79 380 -4 7 -12 -7 -19 -35z m-35 -545 c-3 -7 -5
-2 -5 12 0 14 2 19 5 13 2 -7 2 -19 0 -25z m41 -163 c9 -29 9 -29 26 30 21 73
28 90 21 50 -3 -16 -12 -66 -19 -110 -8 -44 -14 -71 -15 -59 -1 11 -7 34 -15
50 -8 16 -17 56 -20 89 -5 52 -4 55 4 20 5 -22 13 -53 18 -70z"/>
<path d="M10250 2070 c6 -11 13 -20 16 -20 2 0 0 9 -6 20 -6 11 -13 20 -16 20
-2 0 0 -9 6 -20z"/>
<path d="M9771 2064 c0 -11 3 -14 6 -6 3 7 2 16 -1 19 -3 4 -6 -2 -5 -13z"/>
<path d="M9751 1984 c-7 -30 -11 -57 -8 -60 2 -2 9 21 16 52 7 30 11 57 8 60
-2 2 -9 -21 -16 -52z"/>
<path d="M8834 1978 l11 -53 3 39 c2 24 -2 44 -11 53 -12 12 -12 7 -3 -39z"/>
<path d="M10372 2010 c-7 -11 -12 -38 -12 -60 0 -38 -19 -59 -21 -22 -1 9 -4
3 -9 -14 -4 -18 -4 -91 0 -164 10 -175 -4 -226 -95 -354 -44 -60 -45 -74 -5
-68 23 3 36 14 50 41 10 20 19 31 20 25 0 -6 -11 -28 -25 -48 l-24 -36 40 0
c35 0 48 6 80 39 41 40 46 42 29 10 -6 -10 -9 -19 -7 -19 7 0 142 58 156 67 7
4 -28 33 -41 33 -67 0 -121 50 -109 100 3 14 3 63 0 110 -4 61 -6 72 -9 40 -2
-29 -7 1 -15 84 -9 103 -9 142 1 190 7 33 12 62 10 63 -1 1 -7 -7 -14 -17z m5
-392 c-3 -8 -6 -5 -6 6 -1 11 2 17 5 13 3 -3 4 -12 1 -19z"/>
<path d="M8862 1910 c-11 -23 -22 -100 -33 -220 -1 -8 -5 -1 -9 15 -7 26 -8
23 -9 -20 0 -27 3 -67 8 -88 17 -71 -16 -130 -83 -149 -23 -6 -48 -18 -56 -25
-13 -13 -13 -15 3 -24 9 -6 15 -14 12 -20 -3 -5 0 -6 8 -3 8 3 36 -3 64 -14
l50 -19 -4 26 c-3 23 -2 23 6 6 16 -36 49 -57 97 -63 36 -4 45 -2 39 8 -6 9 1
12 28 8 34 -4 35 -3 25 21 -5 14 -29 52 -54 85 -73 99 -83 149 -69 376 6 113
-2 149 -23 100z m-25 -272 c-3 -8 -6 -5 -6 6 -1 11 2 17 5 13 3 -3 4 -12 1
-19z m103 -279 c0 -6 -4 -7 -10 -4 -5 3 -10 11 -10 16 0 6 5 7 10 4 6 -3 10
-11 10 -16z"/>
<path d="M8912 1817 c-7 -46 -12 -106 -12 -134 0 -72 34 -171 74 -216 l35 -39
6 44 c12 86 10 212 -4 246 -7 18 -16 30 -19 28 -3 -3 -16 27 -29 67 -13 39
-28 75 -32 79 -4 5 -12 -29 -19 -75z m85 -139 c-3 -7 -5 -2 -5 12 0 14 2 19 5
13 2 -7 2 -19 0 -25z"/>
<path d="M10257 1830 c-15 -39 -27 -86 -28 -103 -1 -30 -1 -30 -8 -7 -20 70
-38 -77 -26 -215 l7 -87 24 35 c13 19 28 37 34 39 5 1 19 30 31 63 19 54 21
74 16 188 -8 166 -16 180 -50 87z"/>
<path d="M9480 1678 c-3 -207 -3 -192 -1 -264 1 -71 21 -63 21 9 0 29 5 85 10
125 6 47 6 80 -1 95 -5 12 -13 65 -18 117 -8 92 -8 90 -11 -82z"/>
<path d="M9721 1790 c-1 -30 -6 -89 -11 -130 -6 -43 -6 -78 -1 -83 10 -10 25
179 19 233 -4 27 -5 22 -7 -20z"/>
<path d="M15190 1737 c0 -16 24 -56 36 -61 19 -7 18 -5 -11 34 -14 19 -25 31
-25 27z"/>
<path d="M4001 1703 c-10 -26 -10 -27 4 -9 8 11 15 23 15 28 0 15 -7 8 -19
-19z"/>
<path d="M9693 1680 c0 -25 2 -35 4 -22 2 12 2 32 0 45 -2 12 -4 2 -4 -23z"/>
<path d="M8660 1381 c0 -6 4 -13 10 -16 6 -3 7 1 4 9 -7 18 -14 21 -14 7z"/>
<path d="M8670 1325 c-14 -37 -11 -41 27 -35 l31 5 -23 30 -24 29 -11 -29z"/>
<path d="M10513 1333 c-4 -10 -14 -23 -22 -30 -13 -10 -10 -12 20 -13 19 0 41
-6 48 -12 8 -7 5 0 -5 17 -11 16 -18 30 -16 32 1 2 2 8 2 13 0 17 -20 11 -27
-7z"/>
<path d="M8780 1310 c8 -5 22 -10 30 -10 13 0 13 1 0 10 -8 5 -22 10 -30 10
-13 0 -13 -1 0 -10z"/>
<path d="M10405 1310 c-13 -6 -15 -9 -5 -9 8 0 22 4 30 9 18 12 2 12 -25 0z"/>
<path d="M8738 1263 c7 -3 16 -2 19 1 4 3 -2 6 -13 5 -11 0 -14 -3 -6 -6z"/>
<path d="M9467 1255 c-10 -7 -14 -15 -10 -18 12 -8 36 9 32 21 -3 7 -10 6 -22
-3z"/>
<path d="M9720 1260 c0 -15 31 -33 40 -24 5 5 -1 14 -16 21 -13 6 -24 8 -24 3z"/>
<path d="M10458 1263 c7 -3 16 -2 19 1 4 3 -2 6 -13 5 -11 0 -14 -3 -6 -6z"/>
<path d="M8898 1243 c6 -2 18 -2 25 0 6 3 1 5 -13 5 -14 0 -19 -2 -12 -5z"/>
<path d="M9570 1228 c-7 -18 -9 -19 -9 -5 -1 29 -21 19 -21 -12 0 -25 24 -61
34 -50 7 8 18 89 12 89 -4 0 -11 -10 -16 -22z"/>
<path d="M9790 1235 c-10 -13 -9 -15 8 -15 15 0 20 5 16 15 -4 8 -7 15 -9 15
-1 0 -8 -7 -15 -15z"/>
<path d="M10298 1243 c6 -2 18 -2 25 0 6 3 1 5 -13 5 -14 0 -19 -2 -12 -5z"/>
<path d="M8716 1232 c-3 -5 -2 -19 1 -31 6 -22 6 -22 27 -3 11 11 30 24 41 30
17 10 14 11 -22 12 -23 0 -44 -4 -47 -8z"/>
<path d="M9410 1230 c0 -5 5 -10 11 -10 5 0 7 5 4 10 -3 6 -8 10 -11 10 -2 0
-4 -4 -4 -10z"/>
<path d="M9631 1208 c0 -20 3 -39 8 -42 11 -7 38 25 35 42 -1 6 -2 17 -3 22 0
6 -6 10 -12 10 -5 0 -8 -4 -4 -9 3 -5 1 -12 -4 -15 -5 -4 -12 2 -14 11 -3 10
-5 1 -6 -19z"/>
<path d="M10460 1233 c8 -3 21 -12 28 -21 10 -14 12 -13 12 6 0 18 -6 22 -27
21 -16 0 -21 -3 -13 -6z"/>
<path d="M8643 1223 l-21 -4 26 -39 c24 -37 56 -59 69 -46 9 8 -18 66 -28 60
-5 -3 -9 4 -9 15 0 12 -3 20 -7 20 -5 -1 -18 -4 -30 -6z"/>
<path d="M10530 1210 c0 -11 -4 -19 -9 -16 -14 9 -19 -16 -8 -41 l10 -23 19
22 c10 11 18 25 18 29 0 4 7 15 16 23 13 14 13 16 1 16 -9 0 -22 3 -31 6 -12
4 -16 0 -16 -16z"/>
<path d="M9410 1200 c0 -5 9 -10 21 -10 11 0 17 5 14 10 -3 6 -13 10 -21 10
-8 0 -14 -4 -14 -10z"/>
<path d="M9770 1200 c0 -5 7 -10 15 -10 8 0 15 5 15 10 0 6 -7 10 -15 10 -8 0
-15 -4 -15 -10z"/>
<path d="M9313 1191 c10 -4 18 -11 18 -16 -2 -19 50 -28 77 -15 26 13 26 13
-33 26 -66 14 -90 16 -62 5z"/>
<path d="M9830 1185 c-54 -12 -55 -12 -27 -23 36 -15 46 -15 77 3 16 9 19 15
10 15 -10 1 -9 4 5 10 28 12 1 10 -65 -5z"/>
<path d="M9416 1071 c-4 -5 0 -11 6 -14 30 -10 -1 -15 -37 -5 -23 6 -58 8 -80
4 -36 -7 -38 -9 -20 -19 11 -7 55 -17 98 -22 89 -12 104 -5 87 39 -9 26 -43
36 -54 17z"/>
<path d="M9746 1064 c-10 -25 -7 -52 6 -56 19 -7 168 18 180 30 23 23 -77 28
-137 6 -16 -6 -18 -5 -7 7 18 20 15 29 -12 29 -13 0 -27 -7 -30 -16z"/>
<path d="M9490 1040 c0 -24 6 -25 26 -6 19 20 18 26 -6 26 -13 0 -20 -7 -20
-20z"/>
<path d="M9690 1051 c0 -5 7 -14 15 -21 13 -10 15 -9 15 9 0 12 -6 21 -15 21
-8 0 -15 -4 -15 -9z"/>
<path d="M10152 1027 c-13 -15 -14 -23 -4 -51 7 -18 12 -67 12 -109 0 -42 4
-78 9 -81 15 -9 42 -106 36 -127 -4 -12 -16 -19 -33 -20 -74 -1 265 -131 493
-188 178 -45 249 -61 265 -61 21 0 105 123 97 142 -2 7 -27 21 -55 31 l-50 17
-54 -29 c-45 -25 -68 -30 -158 -36 -62 -4 -131 -2 -169 4 -72 12 -99 28 -63
37 20 6 22 12 23 88 1 74 10 169 20 206 3 11 -13 17 -74 26 -72 10 -81 14
-124 55 -25 24 -55 59 -67 78 -17 27 -29 34 -55 35 -19 1 -39 -6 -49 -17z"/>
<path d="M9989 1023 c-13 -16 -12 -17 4 -4 9 7 17 15 17 17 0 8 -8 3 -21 -13z"/>
<path d="M9663 1005 c4 -9 7 -19 7 -21 0 -2 7 -4 15 -4 22 0 18 18 -7 31 -18
10 -20 9 -15 -6z"/>
<path d="M9523 1003 c-17 -6 -16 -23 1 -23 8 0 16 7 20 15 6 15 1 17 -21 8z"/>
<path d="M9416 972 c-6 -10 35 -42 54 -42 6 0 10 10 8 23 -2 15 -11 23 -30 25
-14 2 -29 -1 -32 -6z"/>
<path d="M9736 965 c-3 -8 -3 -22 0 -30 5 -13 11 -12 35 6 16 11 27 25 24 30
-10 15 -52 10 -59 -6z"/>
<path d="M9500 940 c0 -10 10 -28 22 -40 25 -23 23 -23 31 11 5 21 2 28 -19
37 -33 16 -34 15 -34 -8z"/>
<path d="M9678 949 c-16 -9 -26 -59 -12 -59 20 0 44 24 44 45 0 27 -6 30 -32
14z"/>
<path d="M9580 921 c0 -23 19 -41 36 -34 8 3 14 15 14 28 0 17 -6 23 -25 23
-17 0 -25 -6 -25 -17z"/>
<path d="M9705 836 c-16 -13 -27 -27 -23 -31 4 -4 31 -18 60 -31 l53 -24 -27
23 c-16 14 -28 34 -30 54 l-3 33 -30 -24z"/>
<path d="M9480 817 c0 -33 2 -36 23 -28 12 5 22 14 22 21 0 7 -10 19 -22 28
-22 14 -23 14 -23 -21z"/>
<path d="M9589 758 c-7 -22 -5 -78 2 -78 6 0 7 5 4 10 -9 15 1 12 18 -5 13
-13 15 -10 14 28 -2 31 -6 43 -19 45 -10 2 -18 2 -19 0z"/>
<path d="M9470 684 c-43 -23 -44 -24 -15 -23 17 1 38 -1 48 -5 54 -20 64 -14
44 28 -15 32 -20 32 -77 0z"/>
<path d="M9665 680 l-16 -30 30 0 c16 0 32 4 35 8 3 5 19 7 36 4 16 -2 30 -1
30 2 0 6 -84 46 -96 46 -2 0 -10 -13 -19 -30z"/>
<path d="M9110 615 c-209 -76 -205 -74 -139 -69 58 4 147 36 254 92 86 44 51
37 -115 -23z"/>
<path d="M9931 666 c2 -2 55 -27 116 -56 72 -32 136 -55 175 -60 34 -5 64 -8
66 -6 4 4 -334 126 -350 126 -6 0 -9 -2 -7 -4z"/>
<path d="M8258 558 c-15 -12 -15 -17 0 -57 23 -61 78 -93 142 -85 41 5 220 52
229 60 2 2 -2 10 -9 19 -8 9 -29 15 -55 15 -23 0 -58 6 -76 14 -19 8 -57 17
-85 20 -28 3 -63 10 -78 16 -35 13 -49 13 -68 -2z"/>
<path d="M8680 440 c-52 -16 -54 -18 -30 -28 18 -7 34 -6 59 4 18 8 34 14 36
14 1 0 2 7 2 15 0 18 3 18 -67 -5z"/>
<path d="M10470 451 c8 -6 11 -11 5 -11 -22 -1 42 -29 67 -30 44 0 41 17 -6
29 -24 6 -52 13 -62 17 -16 5 -16 4 -4 -5z"/>
<path d="M8390 398 l-25 -10 25 -9 c34 -14 100 -2 93 17 -6 16 -56 18 -93 2z"/>
<path d="M10734 401 c4 -5 0 -11 -6 -14 -7 -2 8 -8 34 -12 27 -4 54 -3 65 3
16 10 16 12 -10 21 -35 13 -90 14 -83 2z"/>
</g>
</svg>
