<?xml version="1.0" standalone="no"?>
<!DOCTYPE svg PUBLIC "-//W3C//DTD SVG 20010904//EN"
 "http://www.w3.org/TR/2001/REC-SVG-20010904/DTD/svg10.dtd">
<svg version="1.0" xmlns="http://www.w3.org/2000/svg"
 width="300.000000pt" height="300.000000pt" viewBox="0 0 300.000000 300.000000"
 preserveAspectRatio="xMidYMid meet">

<g transform="translate(0.000000,300.000000) scale(0.100000,-0.100000)"
fill="#000000" stroke="none">
<path d="M1877 1606 c-21 -8 -47 -22 -57 -31 -17 -16 -20 -15 -50 7 -31 23
-34 23 -293 22 -144 -1 -271 -2 -282 -2 -11 -1 -57 1 -102 4 -74 5 -82 4 -92
-14 -9 -16 -5 -31 16 -72 30 -59 34 -102 10 -128 -42 -46 -13 -72 79 -72 81 0
100 12 90 57 -10 44 25 93 65 93 l31 0 -36 -40 c-41 -45 -43 -59 -18 -89 17
-22 22 -22 239 -19 208 3 223 4 250 24 l29 22 27 -24 c39 -33 87 -40 148 -19
37 11 55 13 62 6 6 -6 33 -11 59 -11 41 0 50 3 59 24 l11 24 22 -25 c29 -34
73 -34 102 0 22 25 22 25 39 6 25 -27 69 -36 150 -29 l70 5 15 41 c8 23 22 49
30 59 19 23 23 160 5 175 -7 6 -32 10 -56 9 -24 0 -63 0 -86 1 -23 1 -50 -3
-61 -9 -11 -6 -24 -6 -33 0 -23 14 -91 10 -110 -7 -17 -15 -19 -15 -34 0 -22
21 -108 22 -125 1 -11 -14 -15 -14 -36 0 -34 22 -94 27 -137 11z m102 -27 c36
-13 51 -35 51 -79 0 -109 -115 -189 -207 -143 -35 17 -38 21 -41 68 l-3 49
-18 -39 c-32 -71 -50 -80 -167 -83 -101 -4 -117 1 -92 26 18 18 57 159 51 183
-5 18 0 19 76 19 103 0 137 -16 147 -66 l6 -35 18 28 c43 70 109 96 179 72z
m488 -11 c7 -5 14 -5 18 2 3 5 17 10 31 10 27 0 31 -20 14 -64 -11 -31 -30
-33 -55 -6 -34 38 -67 22 -85 -41 -11 -38 -5 -69 15 -69 22 0 27 31 8 46 -16
12 -16 15 -3 24 20 13 117 13 125 -1 4 -5 0 -18 -8 -27 -8 -9 -20 -34 -26 -54
-12 -36 -13 -37 -64 -37 -29 -1 -62 -1 -75 -2 -64 -3 -97 68 -68 146 20 50 32
63 82 80 37 12 69 10 91 -7z m-1312 -8 c-3 -11 -3 -29 0 -41 6 -19 10 -17 42
20 34 41 74 54 89 30 4 -8 9 -8 17 0 7 7 53 11 113 11 136 0 138 -7 37 -111
-61 -63 -72 -79 -55 -79 12 0 26 9 32 20 11 20 44 27 54 11 3 -5 1 -23 -5 -40
l-11 -31 -104 0 c-136 0 -139 6 -43 107 42 45 67 79 60 81 -7 2 -22 -5 -35
-17 -17 -16 -32 -20 -72 -17 -48 3 -50 2 -79 -38 -20 -28 -30 -52 -30 -78 l0
-38 -63 0 c-35 0 -62 3 -60 8 36 70 38 79 21 129 -9 26 -22 55 -29 64 -8 8
-14 19 -14 22 0 4 32 7 71 7 66 0 70 -1 64 -20z m1025 -30 c33 -71 41 -67 45
20 0 20 7 26 29 28 15 2 35 1 43 -2 14 -6 14 -8 0 -24 -8 -9 -25 -53 -37 -97
-36 -132 -78 -144 -128 -37 l-26 57 -13 -45 c-7 -24 -10 -52 -7 -62 4 -15 -1
-18 -35 -18 -41 0 -49 7 -32 26 12 12 53 150 50 172 -3 30 0 32 44 32 42 0 44
-1 67 -50z m-678 -72 c-7 -7 -12 -8 -12 -2 0 6 3 14 7 17 3 4 9 5 12 2 2 -3
-1 -11 -7 -17z"/>
<path d="M1900 1508 c-25 -58 -37 -128 -21 -128 14 0 47 70 56 121 10 55 -12
59 -35 7z"/>
<path d="M1632 1463 c-12 -42 -20 -79 -17 -81 2 -2 12 5 24 17 34 34 55 141
28 141 -9 0 -22 -30 -35 -77z"/>
</g>
</svg>
